<?xml version="1.0" encoding="UTF-8" standalone="no"?>
<svg
   xmlns:dc="http://purl.org/dc/elements/1.1/"
   xmlns:cc="http://creativecommons.org/ns#"
   xmlns:rdf="http://www.w3.org/1999/02/22-rdf-syntax-ns#"
   xmlns:svg="http://www.w3.org/2000/svg"
   xmlns="http://www.w3.org/2000/svg"
   xmlns:sodipodi="http://sodipodi.sourceforge.net/DTD/sodipodi-0.dtd"
   xmlns:inkscape="http://www.inkscape.org/namespaces/inkscape"
   height="100%"
   width="100%"
   version="1.1"
   id="svg"
   viewBox="0 0 22 22"
   sodipodi:docname="distribute.svg"
   inkscape:version="0.92.4 (5da689c313, 2019-01-14)">
  <sodipodi:namedview
     pagecolor="#ffffff"
     bordercolor="#666666"
     borderopacity="1"
     objecttolerance="10"
     gridtolerance="10"
     guidetolerance="10"
     inkscape:pageopacity="0"
     inkscape:pageshadow="2"
     inkscape:window-width="1280"
     inkscape:window-height="977"
     id="namedview11"
     showgrid="false"
     inkscape:zoom="15.692827"
     inkscape:cx="10.452193"
     inkscape:cy="10.291557"
     inkscape:window-x="0"
     inkscape:window-y="0"
     inkscape:window-maximized="1"
     inkscape:current-layer="svg" />
  <defs
     id="defs81">
    <style
       type="text/css"
       id="current-color-scheme">
      .ColorScheme-Text {
        color:#7B7C7E;
      }
      .ColorScheme-Background{
        color:#EFF0F1;
      }
      .ColorScheme-Highlight{
        color:#3DAEE6;
      }
      .ColorScheme-ViewText {
        color:#7B7C7E;
      }
      .ColorScheme-ViewBackground{
        color:#FCFCFC;
      }
      .ColorScheme-ViewHover {
        color:#3DAEE6;
      }
      .ColorScheme-ViewFocus{
        color:#1E92FF;
      }
      .ColorScheme-ButtonText {
        color:#7B7C7E;
      }
      .ColorScheme-ButtonBackground{
        color:#EFF0F1;
      }
      .ColorScheme-ButtonHover {
        color:#3DAEE6;
      }
      .ColorScheme-ButtonFocus{
        color:#1E92FF;
      }
</style>
  </defs>
  <metadata
     id="metadata34">
    <rdf:RDF>
      <cc:Work
         rdf:about="">
        <dc:format>image/svg+xml</dc:format>
        <dc:type
           rdf:resource="http://purl.org/dc/dcmitype/StillImage" />
        <dc:title />
      </cc:Work>
    </rdf:RDF>
  </metadata>
  <g
     transform="translate(-81,8)"
     id="distribute-horizontal-x">
    <rect
       style="fill:#000000;fill-opacity:0;fill-rule:evenodd;stroke:none"
       id="rect3012"
       width="16"
       height="16"
       x="84"
       y="-5" />
    <g
       transform="translate(-297.85714,-548.07647)"
       id="layer1">
      <path
         class="ColorScheme-Text"
         style="color:#7b7c7e;fill:#613d80;fill-opacity:1"
         d="m 381.85714,547.6068 0,8 5,0 0,-8 -5,0 z m 11,0 0,8 5,0 0,-8 -5,0 z m -10,1 3,0 0,6 -3,0 0,-6 z m 11,0 3,0 0,6 -3,0 0,-6 z m -6,1 0,4 1,0 0,-1 2,0 0,1 1,0 0,-4 -1,0 0,1 -2,0 0,-1 -1,0 z"
         id="path12083" />
      <path
         id="rect4109"
         transform="translate(378.85714,540.07647)"
         d="m 3,7 0,8 5,0 0,-8 -5,0 z m 11,0 0,8 5,0 0,-8 -5,0 z M 4,8 7,8 7,14 4,14 4,8 z m 11,0 3,0 0,6 -3,0 0,-6 z m -6,1 0,4 1,0 0,-1 2,0 0,1 1,0 0,-4 -1,0 0,1 -2,0 0,-1 -1,0 z"
         style="fill:#7845ab;fill-opacity:1"
         class="ColorScheme-Text" />
    </g>
  </g>
</svg>
