<?xml version="1.0" encoding="UTF-8" standalone="no"?>
<svg
   xmlns:dc="http://purl.org/dc/elements/1.1/"
   xmlns:cc="http://creativecommons.org/ns#"
   xmlns:rdf="http://www.w3.org/1999/02/22-rdf-syntax-ns#"
   xmlns:svg="http://www.w3.org/2000/svg"
   xmlns="http://www.w3.org/2000/svg"
   xmlns:sodipodi="http://sodipodi.sourceforge.net/DTD/sodipodi-0.dtd"
   xmlns:inkscape="http://www.inkscape.org/namespaces/inkscape"
   id="svg2"
   width="30"
   height="30"
   version="1.1"
   viewBox="0 0 30 30"
   sodipodi:docname="bar_meter_vertical.svg"
   inkscape:version="0.92.4 (5da689c313, 2019-01-14)">
  <metadata
     id="metadata29">
    <rdf:RDF>
      <cc:Work
         rdf:about="">
        <dc:format>image/svg+xml</dc:format>
        <dc:type
           rdf:resource="http://purl.org/dc/dcmitype/StillImage" />
      </cc:Work>
    </rdf:RDF>
  </metadata>
  <defs
     id="defs27" />
  <sodipodi:namedview
     pagecolor="#ffffff"
     bordercolor="#666666"
     borderopacity="1"
     objecttolerance="10"
     gridtolerance="10"
     guidetolerance="10"
     inkscape:pageopacity="0"
     inkscape:pageshadow="2"
     inkscape:window-width="1280"
     inkscape:window-height="977"
     id="namedview25"
     showgrid="false"
     inkscape:zoom="8"
     inkscape:cx="-2.752284"
     inkscape:cy="27.119512"
     inkscape:window-x="0"
     inkscape:window-y="0"
     inkscape:window-maximized="1"
     inkscape:current-layer="svg2" />
  <rect
     id="hint-tile-center"
     width="1"
     height="1"
     x="0"
     y="3"
     style="opacity:1;fill:#9966cc;fill-opacity:1;stroke:none" />
  <rect
     id="hint-bar-size"
     width="3"
     height="3"
     x="3"
     y="0"
     style="opacity:1;fill:#9966cc;fill-opacity:1;stroke:none" />
  <path
     id="bar-inactive-bottomright"
     d="m 14,17 0,1 1,0 0,-1 z"
     style="opacity:1;fill:#9966cc;fill-opacity:1;stroke:none" />
  <path
     id="bar-inactive-right"
     d="m 14,15 0,1 1,0 0,-1 -1,0 z"
     style="opacity:1;fill:#9966cc;fill-opacity:1;stroke:none" />
  <path
     id="bar-inactive-topright"
     d="m 14,13 0,1 1,0 0,-1 z"
     style="opacity:1;fill:#9966cc;fill-opacity:1;stroke:none" />
  <path
     id="bar-inactive-bottomleft"
     d="m 10,17 0,1 1,0 0,-1 z"
     style="opacity:1;fill:#9966cc;fill-opacity:1;stroke:none" />
  <path
     id="bar-inactive-left"
     d="m 10,15 0,1 1,0 0,-1 -1,0 z"
     style="opacity:1;fill:#9966cc;fill-opacity:1;stroke:none" />
  <path
     id="bar-inactive-topleft"
     d="m 11,13 -1,0 0,1 1,0 z"
     style="opacity:1;fill:#9966cc;fill-opacity:1;stroke:none" />
  <path
     id="bar-inactive-bottom"
     d="m 12,17 0,1 1,0 0,-1 -1,0 z"
     style="opacity:1;fill:#9966cc;fill-opacity:1;stroke:none" />
  <path
     id="bar-inactive-center"
     d="m 13,15 -1,0 0,1 1,0 0,-1 z"
     style="opacity:1;fill:#9966cc;fill-opacity:1;stroke:none" />
  <path
     id="bar-inactive-top"
     d="m 12,13 0,1 1,0 0,-1 -1,0 z"
     style="opacity:1;fill:#9966cc;fill-opacity:1;stroke:none" />
  <path
     id="bar-active-bottomright"
     d="m 14,26 0,1 1,0 0,-1 z"
     style="opacity:1;fill:#512193;fill-opacity:1;stroke:none" />
  <path
     id="bar-active-right"
     d="m 14,24 0,1 1,0 0,-1 -1,0 z"
     style="opacity:1;fill:#512193;fill-opacity:1;stroke:none" />
  <path
     id="bar-active-topright"
     d="m 14,22 0,1 1,0 0,-1 z"
     style="opacity:1;fill:#512193;fill-opacity:1;stroke:none" />
  <path
     id="bar-active-bottomleft"
     d="m 10,26 0,1 1,0 0,-1 z"
     style="opacity:1;fill:#512193;fill-opacity:1;stroke:none" />
  <path
     id="bar-active-left"
     d="m 10,24 0,1 1,0 0,-1 -1,0 z"
     style="opacity:1;fill:#512193;fill-opacity:1;stroke:none" />
  <path
     id="bar-active-topleft"
     d="m 11,22 -1,0 0,1 1,0 z"
     style="opacity:1;fill:#512193;fill-opacity:1;stroke:none" />
  <path
     id="bar-active-bottom"
     d="m 12,26 0,1 1,0 0,-1 -1,0 z"
     style="opacity:1;fill:#512193;fill-opacity:1;stroke:none" />
  <path
     id="bar-active-center"
     d="m 13,24 -1,0 0,1 1,0 0,-1 z"
     style="opacity:1;fill:#512193;fill-opacity:1;stroke:none" />
  <path
     id="bar-active-top"
     d="m 12,22 0,1 1,0 0,-1 -1,0 z"
     style="opacity:1;fill:#512193;fill-opacity:1;stroke:none" />
  <rect
     id="hint-stretch-borders"
     width="1"
     height="1"
     x="0"
     y="8"
     style="opacity:1;fill:#9966cc;fill-opacity:1;stroke:none" />
  <rect
     id="hint-bar-stretch"
     width="1"
     height="1"
     x="0"
     y="13"
     style="opacity:1;fill:#9966cc;fill-opacity:1;stroke:none" />
</svg>
