<?xml version="1.0" encoding="UTF-8" standalone="no"?>
<!-- Created with Inkscape (http://www.inkscape.org/) -->

<svg
   xmlns:dc="http://purl.org/dc/elements/1.1/"
   xmlns:cc="http://creativecommons.org/ns#"
   xmlns:rdf="http://www.w3.org/1999/02/22-rdf-syntax-ns#"
   xmlns:svg="http://www.w3.org/2000/svg"
   xmlns="http://www.w3.org/2000/svg"
   xmlns:sodipodi="http://sodipodi.sourceforge.net/DTD/sodipodi-0.dtd"
   xmlns:inkscape="http://www.inkscape.org/namespaces/inkscape"
   version="1.0"
   width="16"
   height="16"
   id="svg2"
   sodipodi:docname="checkmarks.svg"
   inkscape:version="0.92.4 (5da689c313, 2019-01-14)">
  <sodipodi:namedview
     pagecolor="#ffffff"
     bordercolor="#666666"
     borderopacity="1"
     objecttolerance="10"
     gridtolerance="10"
     guidetolerance="10"
     inkscape:pageopacity="0"
     inkscape:pageshadow="2"
     inkscape:window-width="1920"
     inkscape:window-height="1033"
     id="namedview12"
     showgrid="false"
     inkscape:zoom="10.429825"
     inkscape:cx="-5.279104"
     inkscape:cy="-0.15836307"
     inkscape:window-x="0"
     inkscape:window-y="0"
     inkscape:window-maximized="1"
     inkscape:current-layer="svg2" />
  <defs
     id="defs4" />
  <metadata
     id="metadata7">
    <rdf:RDF>
      <cc:Work
         rdf:about="">
        <dc:format>image/svg+xml</dc:format>
        <dc:type
           rdf:resource="http://purl.org/dc/dcmitype/StillImage" />
        <dc:title />
      </cc:Work>
    </rdf:RDF>
  </metadata>
  <g
     transform="translate(0,-64)"
     id="layer1">
    <g
       transform="translate(18,0)"
       id="checkbox">
      <rect
         width="16"
         height="16"
         rx="16.456314"
         ry="0"
         x="0"
         y="64"
         id="rect3706"
         style="opacity:0;fill:#7d7d7d;fill-opacity:1;fill-rule:nonzero;stroke:none" />
      <path
         d="m 10.536357,69.119796 c -0.222626,0.0061 -0.456598,0.101359 -0.6315307,0.276294 L 7.3787069,71.922209 6.1156481,70.65915 C 5.7657808,70.309281 5.224532,70.287207 4.8920601,70.619681 l -0.078943,0.07892 c -0.3324721,0.332476 -0.3103975,0.873722 0.039473,1.223593 l 1.7564414,1.736703 c 0.03075,0.04748 0.057119,0.07685 0.098677,0.118414 l 0.039472,0.03951 0.039473,0.03951 c 0.031631,0.02809 0.064557,0.0559 0.098677,0.07892 0.00839,0.0062 0.011163,0.01413 0.019738,0.01969 0.042355,0.02692 0.093142,0.04001 0.138147,0.05924 0.039386,0.01666 0.07717,0.02919 0.1184117,0.03951 0.014241,0.0036 0.025123,0.01664 0.039473,0.01969 0.1091014,0.02113 0.2245577,0.02188 0.3355002,0 0.020861,-0.0031 0.038662,-0.01464 0.059209,-0.01969 0.1498815,-0.04057 0.2946236,-0.117004 0.4144415,-0.236823 l 0.039472,-0.03951 c 0.04156,-0.04152 0.06792,-0.07087 0.098676,-0.118414 l 3.0194951,-2.999766 c 0.34987,-0.349864 0.371943,-0.891118 0.03951,-1.223583 l -0.07896,-0.07892 C 10.962206,69.19041 10.759007,69.114144 10.536385,69.11982 Z"
         id="rect2910"
         style="fill:#7c3eb9;fill-opacity:1;fill-rule:nonzero;stroke:none;stroke-width:0.63152933"
         inkscape:connector-curvature="0" />
    </g>
    <g
       id="radiobutton">
      <rect
         width="16"
         height="16"
         rx="87.767006"
         ry="0"
         x="0"
         y="64"
         id="rect3736"
         style="opacity:0;fill:#9f9f9f;fill-opacity:1;fill-rule:nonzero;stroke:none" />
      <path
         d="m 11.691758,72.058242 a 3.75,3.75 0 1 1 -7.5000002,0 3.75,3.75 0 1 1 7.5000002,0 z"
         id="path3716"
         style="fill:#9966cc;fill-opacity:1;fill-rule:nonzero;stroke:none;stroke-width:1.67705095"
         inkscape:connector-curvature="0" />
    </g>
  </g>
</svg>
