<?xml version="1.0" encoding="UTF-8" standalone="no"?>
<svg
   xmlns:dc="http://purl.org/dc/elements/1.1/"
   xmlns:cc="http://creativecommons.org/ns#"
   xmlns:rdf="http://www.w3.org/1999/02/22-rdf-syntax-ns#"
   xmlns:svg="http://www.w3.org/2000/svg"
   xmlns="http://www.w3.org/2000/svg"
   xmlns:xlink="http://www.w3.org/1999/xlink"
   xmlns:sodipodi="http://sodipodi.sourceforge.net/DTD/sodipodi-0.dtd"
   xmlns:inkscape="http://www.inkscape.org/namespaces/inkscape"
   version="1.0"
   height="200"
   width="200"
   id="svg2"
   sodipodi:docname="clock.svg"
   inkscape:version="0.92.4 (5da689c313, 2019-01-14)">
  <sodipodi:namedview
     pagecolor="#ffffff"
     bordercolor="#666666"
     borderopacity="1"
     objecttolerance="10"
     gridtolerance="10"
     guidetolerance="10"
     inkscape:pageopacity="0"
     inkscape:pageshadow="2"
     inkscape:window-width="1920"
     inkscape:window-height="1033"
     id="namedview78"
     showgrid="false"
     inkscape:zoom="2.5252578"
     inkscape:cx="0.72294948"
     inkscape:cy="85.844956"
     inkscape:window-x="0"
     inkscape:window-y="0"
     inkscape:window-maximized="1"
     inkscape:current-layer="svg2"
     showguides="true" />
  <metadata
     id="metadata7">
    <rdf:RDF>
      <cc:Work
         rdf:about="">
        <dc:format>image/svg+xml</dc:format>
        <dc:type
           rdf:resource="http://purl.org/dc/dcmitype/StillImage" />
        <dc:title />
      </cc:Work>
    </rdf:RDF>
  </metadata>
  <defs
     id="defs5">
    <linearGradient
       id="linearGradient892">
      <stop
         style="stop-color:#9462c6;stop-opacity:1"
         offset="0"
         id="stop884" />
      <stop
         id="stop886"
         offset="0.89999998"
         style="stop-color:#232629;stop-opacity:0.52348995;" />
      <stop
         style="stop-color:#232629;stop-opacity:0.10738255;"
         offset="0.95999998"
         id="stop888" />
      <stop
         style="stop-color:#9462c6;stop-opacity:0"
         offset="1"
         id="stop890" />
    </linearGradient>
    <linearGradient
       id="linearGradient4011">
      <stop
         id="stop4013"
         offset="0"
         style="stop-color:#232629;stop-opacity:1;" />
      <stop
         style="stop-color:#232629;stop-opacity:0.52348995;"
         offset="0.89999998"
         id="stop4019" />
      <stop
         id="stop4021"
         offset="0.95999998"
         style="stop-color:#232629;stop-opacity:0.10738255;" />
      <stop
         id="stop4015"
         offset="1"
         style="stop-color:#232629;stop-opacity:0;" />
    </linearGradient>
    <filter
       height="1.9053369"
       y="-0.4526684"
       width="1.1226287"
       x="-0.061314348"
       id="filter5590"
       color-interpolation-filters="sRGB">
      <feGaussianBlur
         id="feGaussianBlur5592"
         stdDeviation="0.51095291" />
    </filter>
    <filter
       height="1.9053369"
       y="-0.4526684"
       width="1.1226287"
       x="-0.061314348"
       id="filter5574"
       color-interpolation-filters="sRGB">
      <feGaussianBlur
         id="feGaussianBlur5576"
         stdDeviation="0.51095291" />
    </filter>
    <filter
       height="1.1226287"
       y="-0.061314348"
       width="1.9053369"
       x="-0.4526684"
       id="filter5578"
       color-interpolation-filters="sRGB">
      <feGaussianBlur
         id="feGaussianBlur5580"
         stdDeviation="0.51095291" />
    </filter>
    <radialGradient
       r="96.605507"
       fy="382.72916"
       fx="1255.8716"
       cy="382.72916"
       cx="1255.8716"
       gradientUnits="userSpaceOnUse"
       id="radialGradient4671"
       xlink:href="#linearGradient4011" />
    <radialGradient
       r="96.605507"
       fy="382.72916"
       fx="1255.8716"
       cy="382.72916"
       cx="1255.8716"
       gradientUnits="userSpaceOnUse"
       id="radialGradient4671-1"
       xlink:href="#linearGradient892"
       gradientTransform="matrix(1.0765432,0,0,1.0765432,-333.58742,169.89278)" />
  </defs>
  <g
     transform="translate(-1798.1356,76.7415)"
     style="display:none"
     id="layer1" />
  <g
     transform="translate(-1798.1356,76.7415)"
     style="display:inline"
     id="layer2" />
  <g
     id="layer4"
     style="display:inline"
     transform="translate(-1028.03,408.47464)" />
  <g
     id="layer5"
     style="display:inline"
     transform="translate(-1028.03,408.47464)" />
  <g
     transform="translate(-917.46243,-480.01699)"
     id="ClockFace">
    <ellipse
       id="path4329-4"
       style="opacity:0.7;fill:#ecddfe;fill-opacity:1;stroke:none;stroke-width:0.92814434"
       cx="1017.4225"
       cy="580.14417"
       rx="96.625969"
       ry="96.427963" />
    <g
       id="g4323">
      <circle
         transform="matrix(1.0765432,0,0,1.0765432,-334.53758,169.99252)"
         id="path4329"
         style="fill:url(#radialGradient4671);fill-opacity:1;stroke:none" />
      <g
         id="g4245">
        <path
           d="m 1352.4771,382.72916 a 96.605507,96.605507 0 0 1 -96.6055,96.6055 96.605507,96.605507 0 0 1 -96.6055,-96.6055 96.605507,96.605507 0 0 1 96.6055,-96.60551 96.605507,96.605507 0 0 1 96.6055,96.60551 z"
           id="path5099"
           style="fill:#1ea0e6;fill-opacity:1;stroke:none;opacity:0"
           transform="translate(-238.40858,197.28733)" />
        <g
           transform="translate(-0.50849973,-0.41219339)"
           id="g6149">
          <path
             id="path5480"
             d="m 974.36163,503.57953 -0.8437,0.5 2.0937,3.59375 c 0.2777,-0.16344 0.564,-0.30841 0.8437,-0.46875 z m 87.87497,0 -2.0313,3.53125 c 0.2926,0.16682 0.5847,0.3298 0.875,0.5 l 2.0313,-3.53125 z m -95.68747,5.03125 -0.8125,0.5625 2.4687,3.40625 c 0.2689,-0.19888 0.5412,-0.398 0.8126,-0.59375 z m 103.49997,0 -2.375,3.28125 c 0.2668,0.19173 0.5481,0.36775 0.8125,0.5625 l 2.375,-3.28125 z m -110.74997,5.8125 -0.7188,0.65625 2.7813,3.09375 c 0.2398,-0.21947 0.5076,-0.40827 0.75,-0.625 z m 117.99997,0 -2.7188,3 c 0.2483,0.22104 0.5045,0.43234 0.75,0.65625 l 2.7188,-3 z m -124.59377,6.53125 -0.6562,0.75 3.125,2.8125 c 0.2192,-0.24732 0.4342,-0.50529 0.6562,-0.75 z m 131.18757,0 -3,2.6875 c 0.2326,0.25546 0.4579,0.52294 0.6874,0.78125 l 3,-2.71875 z m -137.06257,7.1875 -0.5937,0.78125 3.4375,2.5 c 0.1922,-0.26833 0.3673,-0.54652 0.5625,-0.8125 z m 142.93757,0 -3.25,2.375 c 0.1905,0.25885 0.3748,0.52016 0.5624,0.78125 l 3.2813,-2.375 z m -148.06257,7.75 -0.5,0.875 3.6876,2.125 c 0.1656,-0.2917 0.3309,-0.58548 0.5,-0.875 z m 153.18757,0 -3.5,2.03125 c 0.17,0.29042 0.3333,0.58239 0.5,0.875 l 3.5,-2.03125 z m -157.43757,8.25 -0.4062,0.90625 3.875,1.71875 c 0.1333,-0.30532 0.2695,-0.60282 0.4062,-0.90625 z m 161.68757,0 -3.6876,1.625 c 0.1363,0.3014 0.2735,0.60298 0.4063,0.90625 l 3.6875,-1.625 z m -165.06257,8.65625 -0.3124,0.9375 4.0624,1.3125 c 0.098,-0.30841 0.1804,-0.63063 0.2813,-0.9375 z m 168.43757,0 -3.8438,1.25 c 0.1021,0.30968 0.2139,0.62625 0.3125,0.9375 l 3.8437,-1.25 z m -170.90627,8.96875 -0.1875,0.96875 4.1562,0.875 c 0.066,-0.32409 0.1492,-0.64602 0.2188,-0.96875 z m 173.34367,0 -3.9374,0.84375 c 0.069,0.32066 0.1218,0.64674 0.1874,0.96875 l 3.9688,-0.84375 z m -174.81237,9.15625 -0.125,0.96875 4.2812,0.4375 c 0.031,-0.32197 0.059,-0.64784 0.094,-0.96875 l -4.25,-0.4375 z m 176.34367,0 -4.0625,0.4375 c 0.035,0.32091 0.063,0.64678 0.094,0.96875 l 4.0624,-0.4375 -0.094,-0.96875 z m -172.15627,18.09375 -4.3124,0.4375 0.125,1 4.2812,-0.4375 c -0.037,-0.33266 -0.061,-0.66618 -0.094,-1 z m 168.15627,0 c -0.033,0.33382 -0.057,0.66734 -0.094,1 l 4.0937,0.4375 0.094,-1 z m -166.84367,8.71875 -4.2188,0.90625 0.1875,0.96875 4.25,-0.90625 c -0.071,-0.32234 -0.1519,-0.64505 -0.2187,-0.96875 z m 165.53117,0.0625 c -0.067,0.32362 -0.148,0.6465 -0.2188,0.96875 l 4,0.84375 0.2188,-0.96875 z m -163.28117,8.46875 -4.125,1.34375 0.3124,0.96875 4.125,-1.34375 c -0.1075,-0.32327 -0.2087,-0.64375 -0.3124,-0.96875 z m 160.99997,0.0625 c -0.1041,0.32488 -0.2047,0.64559 -0.3126,0.96875 l 3.9376,1.28125 0.3124,-0.96875 z m -157.87497,8.21875 -3.9688,1.78125 0.4062,0.90625 3.9688,-1.78125 c -0.1376,-0.30308 -0.2721,-0.60127 -0.4062,-0.90625 z m 154.74997,0.0937 c -0.1339,0.30333 -0.269,0.60481 -0.4063,0.90625 l 3.7813,1.6875 0.4062,-0.90625 z m -150.74997,7.78125 -3.8126,2.1875 0.5,0.875 3.8126,-2.1875 c -0.1699,-0.28898 -0.3335,-0.58384 -0.5,-0.875 z m 146.74997,0.0937 c -0.1676,0.29207 -0.3292,0.58514 -0.5,0.875 l 3.625,2.09375 0.5,-0.875 z m -141.99997,7.34375 -3.5313,2.5625 0.5937,0.8125 3.5313,-2.5625 c -0.1995,-0.27029 -0.3974,-0.53977 -0.5937,-0.8125 z m 137.18737,0.0937 c -0.1931,0.26753 -0.3662,0.54733 -0.5624,0.8125 l 3.375,2.46875 0.5937,-0.8125 z m -131.62497,6.78125 -3.2812,2.9375 0.6562,0.75 3.2813,-2.9375 c -0.2242,-0.24569 -0.4349,-0.50167 -0.6563,-0.75 z m 126.09377,0.0937 c -0.2264,0.25327 -0.4581,0.49949 -0.6875,0.75 l 3.1563,2.84375 0.6874,-0.75 z m -119.93747,6.1875 -2.9063,3.25 0.7188,0.6875 2.9375,-3.28125 c -0.2482,-0.22104 -0.5044,-0.43234 -0.75,-0.65625 z m 113.71867,0.0937 c -0.251,0.22809 -0.4961,0.46241 -0.75,0.6875 l 2.8438,3.15625 0.75,-0.6875 z m -106.90617,5.5 -2.5625,3.53125 0.8125,0.59375 2.5625,-3.53125 c -0.2716,-0.19534 -0.5433,-0.39528 -0.8125,-0.59375 z m 100.06247,0.0937 c -0.2696,0.19791 -0.5404,0.39898 -0.8125,0.59375 l 2.5,3.4375 0.8125,-0.59375 z m -92.65627,4.78125 -2.1874,3.78125 0.8437,0.5 2.1875,-3.8125 c -0.28,-0.15998 -0.5658,-0.30567 -0.8438,-0.46875 z m 85.24997,0.0625 c -0.2828,0.16517 -0.5588,0.33803 -0.8437,0.5 l 2.125,3.71875 0.875,-0.5 z m -77.43737,4 -1.75,3.96875 0.9062,0.40625 1.7812,-3.96875 c -0.3132,-0.13766 -0.6262,-0.26491 -0.9374,-0.40625 z m 69.62497,0.0937 c -0.3079,0.13886 -0.6278,0.27098 -0.9376,0.40625 l 1.7188,3.875 0.9375,-0.40625 z m -61.37497,3.125 -1.3438,4.15625 0.9375,0.3125 1.3437,-4.15625 c -0.3141,-0.10014 -0.625,-0.2088 -0.9374,-0.3125 z m 53.09367,0.0625 c -0.3222,0.10608 -0.6448,0.2102 -0.9687,0.3125 l 1.3437,4.09375 0.9687,-0.3125 z m -44.5937,2.25 -0.90627,4.25 0.99997,0.21875 0.9063,-4.25 c -0.3338,-0.0688 -0.6678,-0.14601 -1,-0.21875 z m 36.0624,0.0625 c -0.3265,0.0705 -0.6408,0.15204 -0.9687,0.21875 l 0.9063,4.1875 0.9687,-0.21875 z m -27.3124,1.375 -0.4688,4.34375 1,0.0937 0.4375,-4.3125 c -0.3249,-0.0321 -0.6449,-0.0892 -0.9687,-0.125 z m 18.5937,0.0313 c -0.323,0.035 -0.6447,0.0624 -0.9687,0.0937 l 0.4374,4.3125 0.9688,-0.0937 z"
             style="font-size:medium;font-style:normal;font-variant:normal;font-weight:normal;font-stretch:normal;text-indent:0;text-align:start;text-decoration:none;line-height:normal;letter-spacing:normal;word-spacing:normal;text-transform:none;direction:ltr;block-progression:tb;writing-mode:lr-tb;text-anchor:start;baseline-shift:baseline;opacity:1;color:#000000;fill:#9462c6;fill-opacity:1;stroke:none;stroke-width:1px;marker:none;visibility:visible;display:inline;overflow:visible;enable-background:accumulate;font-family:Sans;-inkscape-font-specification:Sans" />
          <path
             style="color:#000000;font-style:normal;font-variant:normal;font-weight:normal;font-stretch:normal;font-size:medium;line-height:normal;font-family:Sans;-inkscape-font-specification:Sans;text-indent:0;text-align:start;text-decoration:none;text-decoration-line:none;letter-spacing:normal;word-spacing:normal;text-transform:none;direction:ltr;block-progression:tb;writing-mode:lr-tb;baseline-shift:baseline;text-anchor:start;display:inline;overflow:visible;visibility:visible;opacity:1;fill:#9462c6;fill-opacity:1;stroke:none;stroke-width:1px;marker:none;enable-background:accumulate"
             d="m 974.32249,657.72064 -0.8437,-0.5 2.0937,-3.59375 c 0.2777,0.16344 0.564,0.30841 0.8437,0.46875 z m 87.87501,0 -2.0313,-3.53125 c 0.2926,-0.16682 0.5847,-0.3298 0.875,-0.5 l 2.0313,3.53125 z m -95.68751,-5.03125 -0.8125,-0.5625 2.4687,-3.40625 c 0.2689,0.19888 0.5412,0.398 0.8126,0.59375 z m 103.50001,0 -2.375,-3.28125 c 0.2668,-0.19173 0.5481,-0.36775 0.8125,-0.5625 l 2.375,3.28125 z m -110.75001,-5.8125 -0.7188,-0.65625 2.7813,-3.09375 c 0.2398,0.21947 0.5076,0.40827 0.75,0.625 z m 118.00001,0 -2.7188,-3 c 0.2483,-0.22104 0.5045,-0.43234 0.75,-0.65625 l 2.7188,3 z m -124.59381,-6.53125 -0.6562,-0.75 3.125,-2.8125 c 0.2192,0.24732 0.4342,0.50529 0.6562,0.75 z m 131.18761,0 -3,-2.6875 c 0.2326,-0.25546 0.4579,-0.52294 0.6874,-0.78125 l 3,2.71875 z m -137.06261,-7.1875 -0.5937,-0.78125 3.4375,-2.5 c 0.1922,0.26833 0.3673,0.54652 0.5625,0.8125 z m 142.93761,0 -3.25,-2.375 c 0.1905,-0.25885 0.3748,-0.52016 0.5624,-0.78125 l 3.2813,2.375 z m -148.06261,-7.75 -0.5,-0.875 3.6876,-2.125 c 0.1656,0.2917 0.3309,0.58548 0.5,0.875 z m 153.18761,0 -3.5,-2.03125 c 0.17,-0.29042 0.3333,-0.58239 0.5,-0.875 l 3.5,2.03125 z m -157.43761,-8.25 -0.4062,-0.90625 3.875,-1.71875 c 0.1333,0.30532 0.2695,0.60282 0.4062,0.90625 z m 161.68761,0 -3.6876,-1.625 c 0.1363,-0.3014 0.2735,-0.60298 0.4063,-0.90625 l 3.6875,1.625 z m -165.06261,-8.65625 -0.3124,-0.9375 4.0624,-1.3125 c 0.098,0.30841 0.1804,0.63063 0.2813,0.9375 z m 168.43761,0 -3.8438,-1.25 c 0.1021,-0.30968 0.2139,-0.62625 0.3125,-0.9375 l 3.8437,1.25 z m -170.90631,-8.96875 -0.1875,-0.96875 4.1562,-0.875 c 0.066,0.32409 0.1492,0.64602 0.2188,0.96875 z m 173.34371,0 -3.9374,-0.84375 c 0.069,-0.32066 0.1218,-0.64674 0.1874,-0.96875 l 3.9688,0.84375 z m -174.81241,-9.15625 -0.125,-0.96875 4.2812,-0.4375 c 0.031,0.32197 0.059,0.64784 0.094,0.96875 l -4.25,0.4375 z m 176.34371,0 -4.0625,-0.4375 c 0.035,-0.32091 0.063,-0.64678 0.094,-0.96875 l 4.0624,0.4375 -0.094,0.96875 z m -172.15631,-18.09375 -4.3124,-0.4375 0.125,-1 4.2812,0.4375 c -0.037,0.33266 -0.061,0.66618 -0.094,1 z m 168.15631,0 c -0.033,-0.33382 -0.057,-0.66734 -0.094,-1 l 4.0937,-0.4375 0.094,1 z m -166.84371,-8.71875 -4.2188,-0.90625 0.1875,-0.96875 4.25,0.90625 c -0.071,0.32234 -0.1519,0.64505 -0.2187,0.96875 z m 165.53121,-0.0625 c -0.067,-0.32362 -0.148,-0.6465 -0.2188,-0.96875 l 4,-0.84375 0.2188,0.96875 z m -163.28121,-8.46875 -4.125,-1.34375 0.3124,-0.96875 4.125,1.34375 c -0.1075,0.32327 -0.2087,0.64375 -0.3124,0.96875 z m 161.00001,-0.0625 c -0.1041,-0.32488 -0.2047,-0.64559 -0.3126,-0.96875 l 3.9376,-1.28125 0.3124,0.96875 z m -157.87501,-8.21875 -3.9688,-1.78125 0.4062,-0.90625 3.9688,1.78125 c -0.1376,0.30308 -0.2721,0.60127 -0.4062,0.90625 z m 154.75001,-0.0937 c -0.1339,-0.30333 -0.269,-0.60481 -0.4063,-0.90625 l 3.7813,-1.6875 0.4062,0.90625 z m -150.75001,-7.78125 -3.8126,-2.1875 0.5,-0.875 3.8126,2.1875 c -0.1699,0.28898 -0.3335,0.58384 -0.5,0.875 z m 146.75001,-0.0937 c -0.1676,-0.29207 -0.3292,-0.58514 -0.5,-0.875 l 3.625,-2.09375 0.5,0.875 z m -142.00001,-7.34375 -3.5313,-2.5625 0.5937,-0.8125 3.5313,2.5625 c -0.1995,0.27029 -0.3974,0.53977 -0.5937,0.8125 z m 137.18741,-0.0937 c -0.1931,-0.26753 -0.3662,-0.54733 -0.5624,-0.8125 l 3.375,-2.46875 0.5937,0.8125 z m -131.62501,-6.78125 -3.2812,-2.9375 0.6562,-0.75 3.2813,2.9375 c -0.2242,0.24569 -0.4349,0.50167 -0.6563,0.75 z m 126.09381,-0.0937 c -0.2264,-0.25327 -0.4581,-0.49949 -0.6875,-0.75 l 3.1563,-2.84375 0.6874,0.75 z m -119.93751,-6.1875 -2.9063,-3.25 0.7188,-0.6875 2.9375,3.28125 c -0.2482,0.22104 -0.5044,0.43234 -0.75,0.65625 z m 113.71871,-0.0937 c -0.251,-0.22809 -0.4961,-0.46241 -0.75,-0.6875 l 2.8438,-3.15625 0.75,0.6875 z m -106.90621,-5.5 -2.5625,-3.53125 0.8125,-0.59375 2.5625,3.53125 c -0.2716,0.19534 -0.5433,0.39528 -0.8125,0.59375 z m 100.06251,-0.0937 c -0.2696,-0.19791 -0.5404,-0.39898 -0.8125,-0.59375 l 2.5,-3.4375 0.8125,0.59375 z m -92.65631,-4.78125 -2.1874,-3.78125 0.8437,-0.5 2.1875,3.8125 c -0.28,0.15998 -0.5658,0.30567 -0.8438,0.46875 z m 85.25001,-0.0625 c -0.2828,-0.16517 -0.5588,-0.33803 -0.8437,-0.5 l 2.125,-3.71875 0.875,0.5 z m -77.43741,-4 -1.75,-3.96875 0.9062,-0.40625 1.7812,3.96875 c -0.3132,0.13766 -0.6262,0.26491 -0.9374,0.40625 z m 69.62501,-0.0937 c -0.3079,-0.13886 -0.6278,-0.27098 -0.9376,-0.40625 l 1.7188,-3.875 0.9375,0.40625 z m -61.37501,-3.125 -1.3438,-4.15625 0.9375,-0.3125 1.3437,4.15625 c -0.3141,0.10014 -0.625,0.2088 -0.9374,0.3125 z m 53.09371,-0.0625 c -0.3222,-0.10608 -0.6448,-0.2102 -0.9687,-0.3125 l 1.3437,-4.09375 0.9687,0.3125 z m -44.5937,-2.25 -0.90631,-4.25 1.00001,-0.21875 0.9063,4.25 c -0.3338,0.0688 -0.6678,0.14601 -1,0.21875 z m 36.0624,-0.0625 c -0.3265,-0.0705 -0.6408,-0.15204 -0.9687,-0.21875 l 0.9063,-4.1875 0.9687,0.21875 z m -27.3124,-1.375 -0.4688,-4.34375 1,-0.0937 0.4375,4.3125 c -0.3249,0.0321 -0.6449,0.0892 -0.9687,0.125 z m 18.5937,-0.0313 c -0.323,-0.035 -0.6447,-0.0624 -0.9687,-0.0937 l 0.4374,-4.3125 0.9688,0.0937 z"
             id="path4514" />
        </g>
        <rect
           style="fill:#212121;fill-opacity:0.41346154;stroke:none;filter:url(#filter5590)"
           id="rect5549"
           width="20"
           height="2.7090182"
           x="927.4787"
           y="580.17072"
           transform="matrix(0.36694328,0,0,0.86347775,586.55097,78.718441)" />
        <rect
           y="578.53497"
           x="926.95636"
           height="3.1674616"
           width="7.1153073"
           id="rect5442"
           style="fill:#9462c6;fill-opacity:1;stroke:none" />
        <rect
           y="580.17169"
           x="1088.5787"
           height="2.7090182"
           width="20"
           id="rect5531"
           style="fill:#1c1c1c;fill-opacity:0.36057691;stroke:none;filter:url(#filter5574)"
           transform="matrix(0.37457823,0,0,0.81883351,693.99311,104.55138)" />
        <rect
           style="fill:#9462c6;fill-opacity:1;stroke:none"
           id="rect5446"
           width="7.2242427"
           height="3.188731"
           x="1101.8817"
           y="578.50446" />
        <rect
           transform="matrix(0,0.447875,-1.2130955,0,-587.06539,505.78596)"
           style="fill:#2a2a2a;fill-opacity:0.52403846;stroke:none;filter:url(#filter5578)"
           id="rect5571"
           width="20"
           height="2.7090182"
           x="349.02609"
           y="-1323.934" />
        <rect
           y="-1019.2734"
           x="662.41693"
           height="3.7423651"
           width="9.4189014"
           id="rect5448"
           style="fill:#9462c6;fill-opacity:1;stroke:none"
           transform="matrix(0,1,-1,0,0,0)" />
        <path
           transform="translate(-238.40858,197.28733)"
           style="fill:none;stroke:#9462c6;stroke-opacity:1"
           id="path5627"
           d="m 1352.4771,382.72916 a 96.605507,96.605507 0 0 1 -96.6055,96.6055 96.605507,96.605507 0 0 1 -96.6055,-96.6055 96.605507,96.605507 0 0 1 96.6055,-96.60551 96.605507,96.605507 0 0 1 96.6055,96.60551 z" />
        <g
           transform="translate(-0.50849973,-0.41219339)"
           id="g6073">
          <path
             d="m 1090.3075,537.57714 4.0274,-2.3252 1.3545,2.34607 -4.0274,2.3252 z m -149.43492,86.2763 4.0273,-2.32515 1.3545,2.34607 -4.0273,2.32515 z"
             style="fill:#9462c6;fill-opacity:1;stroke:none"
             id="path6063" />
          <path
             id="path6065"
             style="fill:#9462c6;fill-opacity:1;stroke:none"
             d="m 1059.0835,507.3447 2.3252,-4.02738 2.3461,1.35451 -2.3252,4.02738 z m -86.27632,149.43492 2.3252,-4.02729 2.3461,1.35451 -2.3252,4.02729 z" />
          <path
             d="m 944.89998,539.92325 -4.0274,-2.32521 1.3545,-2.34608 4.0274,2.3252 z m 149.43492,86.27629 -4.0273,-2.3252 1.3545,-2.34614 4.0273,2.32526 z"
             style="fill:#9462c6;fill-opacity:1;stroke:none"
             id="path6067" />
          <path
             id="path6069"
             style="fill:#9462c6;fill-opacity:1;stroke:none"
             d="m 975.13238,508.69925 -2.3252,-4.02739 2.3461,-1.35452 2.3252,4.02738 z m 86.27632,149.43491 -2.3251,-4.02733 2.3461,-1.35457 2.3251,4.02738 z" />
        </g>
        <rect
           y="-1323.934"
           x="349.02609"
           height="2.7090182"
           width="20"
           id="rect4510"
           style="fill:#2a2a2a;fill-opacity:0.52403846;stroke:none;filter:url(#filter5578)"
           transform="matrix(0,0.40585592,-0.86919488,0,-132.13779,344.5087)" />
        <rect
           transform="matrix(0,1,-1,0,0,0)"
           style="fill:#9462c6;fill-opacity:1;stroke:none"
           id="rect4512"
           width="8.1235151"
           height="2.7090182"
           x="485.82907"
           y="-1018.8154" />
        <text
           xml:space="preserve"
           style="font-style:normal;font-weight:normal;font-size:15px;line-height:125%;font-family:sans-serif;letter-spacing:0px;word-spacing:0px;fill:#1a1a1a;fill-opacity:1;stroke:none;stroke-width:1px;stroke-linecap:butt;stroke-linejoin:miter;stroke-opacity:1;"
           x="936.16785"
           y="584.64886"
           id="text4204"><tspan
             id="tspan4206"
             x="936.16785"
             y="584.64886"
             style="font-style:normal;font-variant:normal;font-weight:normal;font-stretch:normal;font-size:15px;font-family:Aller;-inkscape-font-specification:Aller;fill:#1a1a1a;fill-opacity:1;">9</tspan></text>
        <text
           id="text4208"
           y="584.99323"
           x="1090.8383"
           style="font-style:normal;font-weight:normal;font-size:15px;line-height:125%;font-family:sans-serif;letter-spacing:0px;word-spacing:0px;fill:#1a1a1a;fill-opacity:1;stroke:none;stroke-width:1px;stroke-linecap:butt;stroke-linejoin:miter;stroke-opacity:1;"
           xml:space="preserve"><tspan
             style="font-style:normal;font-variant:normal;font-weight:normal;font-stretch:normal;font-size:15px;font-family:Aller;-inkscape-font-specification:Aller;fill:#1a1a1a;fill-opacity:1;"
             y="584.99323"
             x="1090.8383"
             id="tspan4210">3</tspan></text>
        <text
           id="text4212"
           y="659.67615"
           x="1012.7079"
           style="font-style:normal;font-weight:normal;font-size:15px;line-height:125%;font-family:sans-serif;letter-spacing:0px;word-spacing:0px;fill:#1a1a1a;fill-opacity:1;stroke:none;stroke-width:1px;stroke-linecap:butt;stroke-linejoin:miter;stroke-opacity:1;"
           xml:space="preserve"><tspan
             style="font-style:normal;font-variant:normal;font-weight:normal;font-stretch:normal;font-size:15px;font-family:Aller;-inkscape-font-specification:Aller;fill:#1a1a1a;fill-opacity:1;"
             y="659.67615"
             x="1012.7079"
             id="tspan4214">6</tspan></text>
        <text
           xml:space="preserve"
           style="font-style:normal;font-weight:normal;font-size:15px;line-height:125%;font-family:sans-serif;letter-spacing:0px;word-spacing:0px;fill:#1a1a1a;fill-opacity:1;stroke:none;stroke-width:1px;stroke-linecap:butt;stroke-linejoin:miter;stroke-opacity:1;"
           x="1008.3308"
           y="507.15869"
           id="text4216"><tspan
             id="tspan4218"
             x="1008.3308"
             y="507.15869"
             style="font-style:normal;font-variant:normal;font-weight:normal;font-stretch:normal;font-size:15px;font-family:Aller;-inkscape-font-specification:Aller;fill:#1a1a1a;fill-opacity:1;">12</tspan></text>
      </g>
    </g>
  </g>
  <g
     id="HourHand"
     transform="matrix(-0.60001469,-0.79998898,0.79998898,-0.60001469,185.52507,1262.6976)">
    <rect
       transform="matrix(-0.60001469,0.79998898,-0.79998898,-0.60001469,1122.662,607.61912)"
       y="91.000023"
       x="33.000023"
       height="64.000008"
       width="18"
       id="rect4673"
       style="opacity:0.01000001;fill:#232629;fill-opacity:0.60392157;stroke:none" />
    <path
       style="fill:#7137c8;fill-opacity:1;stroke:none"
       d="m 980.52302,549.88656 -5.95481,-0.74154 2.52119,5.5089 0.0361,-0.0506 34.4809,25.90467 3.4218,-4.69848 -34.48069,-25.90464 z"
       id="rect5450" />
    <path
       transform="translate(-753.93395,199.18469)"
       d="m 1777.8958,382.03223 a 6.4994531,6.4994531 0 0 1 -6.4994,6.49945 6.4994531,6.4994531 0 0 1 -6.4995,-6.49945 6.4994531,6.4994531 0 0 1 6.4995,-6.49946 6.4994531,6.4994531 0 0 1 6.4994,6.49946 z"
       id="path5455-2"
       style="fill:#7137c8;fill-opacity:1;stroke:none" />
  </g>
  <g
     id="MinuteHand"
     transform="matrix(-0.50330119,0.86411105,-0.86411105,-0.50330119,1082.352,-486.65826)"
     style="fill:#717171;fill-opacity:1">
    <rect
       transform="matrix(-0.50330119,-0.86411105,0.86411105,-0.50330119,966.28244,692.06487)"
       y="94"
       x="64"
       height="85"
       width="12.000004"
       id="rect4675"
       style="opacity:0.01000001;fill:#232629;fill-opacity:0.60392157;stroke:none" />
    <path
       id="rect5459"
       d="m 588.1651,1012.6153 75.73595,7e-4 0,3 -75.73595,-7e-4 z"
       style="fill:#9462c6;stroke:none;fill-opacity:1"
       transform="matrix(0.8642748,-0.50301995,0.50301995,0.8642748,0,0)" />
    <path
       style="fill:#9462c6;fill-opacity:1;stroke:none"
       id="path5457"
       d="m 1777.8958,382.03223 a 6.4994531,6.4994531 0 0 1 -6.4994,6.49945 6.4994531,6.4994531 0 0 1 -6.4995,-6.49945 6.4994531,6.4994531 0 0 1 6.4995,-6.49946 6.4994531,6.4994531 0 0 1 6.4994,6.49946 z"
       transform="matrix(0.56475116,0,0,0.56475116,17.103729,365.50423)" />
  </g>
  <g
     id="SecondHand"
     transform="matrix(-0.50061728,0.86566872,-0.86566872,-0.50061728,1138.4953,-489.71587)">
    <rect
       transform="matrix(0.8660254,-0.5,0.5,0.8660254,0,0)"
       y="1011.1874"
       x="589.80505"
       height="1.7321701"
       width="77.735947"
       id="rect6212"
       style="fill:#7137c8;fill-opacity:1;stroke:none" />
    <rect
       transform="matrix(-0.50061728,-0.86566873,0.86566873,-0.50061728,985.87226,726.54885)"
       y="96"
       x="106"
       height="6.999999"
       width="8.0000019"
       id="rect4677"
       style="opacity:0.01000001;fill:#232629;fill-opacity:0.60392157;stroke:none" />
    <path
       id="path6214"
       d="m 1777.8958,382.03223 c 0,3.58955 -2.9099,6.49945 -6.4994,6.49945 -3.5896,0 -6.4995,-2.9099 -6.4995,-6.49945 0,-3.58955 2.9099,-6.49946 6.4995,-6.49946 3.5895,0 6.4994,2.90991 6.4994,6.49946 z"
       style="fill:#7137c8;fill-opacity:1;stroke:none"
       transform="matrix(0.29783451,0,0,0.29783451,489.8134,467.44934)" />
  </g>
  <g
     transform="matrix(-0.60001469,-0.79998898,0.79998898,-0.60001469,199.52507,1262.6976)"
     id="HourHandShadow"
     style="opacity:0.1">
    <path
       id="path4376"
       d="m 980.52302,549.88656 -5.95481,-0.74154 2.52119,5.5089 0.0361,-0.0506 34.4809,25.90467 3.4218,-4.69848 -34.48069,-25.90464 z"
       style="fill:#232629;fill-opacity:1;stroke:none" />
    <path
       transform="translate(-754,199.1995)"
       d="m 1777.8958,382.03223 a 6.4994531,6.4994531 0 0 1 -6.4994,6.49945 6.4994531,6.4994531 0 0 1 -6.4995,-6.49945 6.4994531,6.4994531 0 0 1 6.4995,-6.49946 6.4994531,6.4994531 0 0 1 6.4994,6.49946 z"
       id="path4378"
       style="fill:#232629;fill-opacity:0.00392157;stroke:none" />
  </g>
  <g
     transform="matrix(-0.50061728,0.86566872,-0.86566872,-0.50061728,1146.4953,-489.71587)"
     id="SecondHandShadow"
     style="opacity:0.1;fill:#232629;fill-opacity:1">
    <path
       id="rect4414"
       d="m 591.80505,1011.186 75.73595,0 0,1.7321 -75.73595,0 z"
       style="fill:#232629;stroke:none"
       transform="matrix(0.8660254,-0.5,0.5,0.8660254,0,0)" />
    <path
       transform="matrix(0.29783451,0,0,0.29783451,489.8134,467.44934)"
       d="m 1777.8958,382.03223 a 6.4994531,6.4994531 0 0 1 -6.4994,6.49945 6.4994531,6.4994531 0 0 1 -6.4995,-6.49945 6.4994531,6.4994531 0 0 1 6.4995,-6.49946 6.4994531,6.4994531 0 0 1 6.4994,6.49946 z"
       id="path4416"
       style="fill:#232629;fill-opacity:0.00392157;stroke:none" />
    <rect
       transform="matrix(-0.50061728,-0.86566873,0.86566873,-0.50061728,988.87596,731.74286)"
       y="97"
       x="113"
       height="82"
       width="5.999999"
       id="rect4715"
       style="opacity:0.01000001;fill:#232629;fill-opacity:0.60392157;stroke:none" />
  </g>
  <path
     d="m -45,100 a 5,5 0 1 1 -10,0 5,5 0 1 1 10,0 z"
     id="HandCenterScrew"
     style="opacity:0.001;fill:#232629;fill-opacity:1;stroke:none" />
  <circle
     d="m -150,100 a 45,45 0 1 1 -90,0 45,45 0 1 1 90,0 z"
     transform="matrix(1.5739209,0,0,1.5739209,111.91458,-57.39209)"
     id="Glass"
     style="opacity:0.00100002;fill:#232629;fill-opacity:1;stroke:none" />
  <g
     style="opacity:0.1;fill:#232629;fill-opacity:1"
     transform="matrix(-0.50330119,0.86411105,-0.86411105,-0.50330119,1092.352,-486.65826)"
     id="MinuteHandShadow">
    <path
       id="rect4404"
       d="m 590.1651,1012.6146 73.73595,0 0,3 -73.73595,0 z"
       style="fill:#232629;stroke:none"
       transform="matrix(0.8642748,-0.50301995,0.50301995,0.8642748,0,0)" />
    <path
       style="fill:#232629;fill-opacity:0.00392157;stroke:none"
       id="path4406"
       d="m 1777.8958,382.03223 a 6.4994531,6.4994531 0 0 1 -6.4994,6.49945 6.4994531,6.4994531 0 0 1 -6.4995,-6.49945 6.4994531,6.4994531 0 0 1 6.4995,-6.49946 6.4994531,6.4994531 0 0 1 6.4994,6.49946 z"
       transform="matrix(0.62496371,0,0,0.62496371,-89.662081,342.47545)" />
  </g>
</svg>
