<?xml version="1.0" encoding="UTF-8" standalone="no"?>
<!-- Created with Inkscape (http://www.inkscape.org/) -->

<svg
   xmlns:osb="http://www.openswatchbook.org/uri/2009/osb"
   xmlns:dc="http://purl.org/dc/elements/1.1/"
   xmlns:cc="http://creativecommons.org/ns#"
   xmlns:rdf="http://www.w3.org/1999/02/22-rdf-syntax-ns#"
   xmlns:svg="http://www.w3.org/2000/svg"
   xmlns="http://www.w3.org/2000/svg"
   xmlns:sodipodi="http://sodipodi.sourceforge.net/DTD/sodipodi-0.dtd"
   xmlns:inkscape="http://www.inkscape.org/namespaces/inkscape"
   id="svg7080"
   version="1.0"
   viewBox="0 0 32.080002 90.63"
   height="90.629997"
   width="32.080002"
   inkscape:version="0.92.4 (5da689c313, 2019-01-14)"
   sodipodi:docname="viewitem.svg">
  <sodipodi:namedview
     pagecolor="#ffffff"
     bordercolor="#666666"
     borderopacity="1"
     objecttolerance="10"
     gridtolerance="10"
     guidetolerance="10"
     inkscape:pageopacity="0"
     inkscape:pageshadow="2"
     inkscape:window-width="1280"
     inkscape:window-height="977"
     id="namedview28"
     showgrid="false"
     inkscape:zoom="7.9773254"
     inkscape:cx="20.136778"
     inkscape:cy="46.799728"
     inkscape:current-layer="svg7080"
     inkscape:pagecheckerboard="false"
     inkscape:window-x="0"
     inkscape:window-y="0"
     inkscape:window-maximized="1"
     inkscape:showpageshadow="false"
     fit-margin-top="5"
     fit-margin-left="5"
     fit-margin-right="5"
     fit-margin-bottom="5"
     showguides="true"
     inkscape:guide-bbox="true" />
  <defs
     id="defs7082">
    <linearGradient
       id="selected"
       osb:paint="solid">
      <stop
         style="stop-color:#171717;stop-opacity:0.6682;"
         offset="0"
         id="stop1138" />
    </linearGradient>
    <style
       type="text/css"
       id="current-color-scheme">
      .ColorScheme-Text {
        color:#41363b;
        stop-color:#41363b;
      }
      .ColorScheme-Background {
        color:#eff0f1;
        stop-color:#eff0f1;
      }
      .ColorScheme-Highlight {
        color:#3daee9;
        stop-color:#3daee9;
      }
      .ColorScheme-ViewText {
        
        stop-
      }
      .ColorScheme-ViewBackground {
        color:#fcfcfc;
        stop-color:#fcfcfc;
      }
      .ColorScheme-ViewHover {
        color:#93cee9;
        stop-color:#93cee9;
      }
      .ColorScheme-ViewFocus{
        color:#3daee9;
        stop-color:#3daee9;
      }
      .ColorScheme-ButtonText {
        
        stop-
      }
      .ColorScheme-ButtonBackground {
        color:#eff0f1;
        stop-color:#eff0f1;
      }
      .ColorScheme-ButtonHover {
        color:#93cee9;
        stop-color:#93cee9;
      }
      .ColorScheme-ButtonFocus{
        color:#3daee9;
        stop-color:#3daee9;
      }
      </style>
    <linearGradient
       id="fill"
       osb:paint="solid">
      <stop
         style="stop-color:#ffffff;stop-opacity:0.09130435;"
         offset="0"
         id="stop1075" />
    </linearGradient>
  </defs>
  <metadata
     id="metadata7085">
    <rdf:RDF>
      <cc:Work
         rdf:about="">
        <dc:format>image/svg+xml</dc:format>
        <dc:type
           rdf:resource="http://purl.org/dc/dcmitype/StillImage" />
        <dc:title />
      </cc:Work>
    </rdf:RDF>
  </metadata>
  <rect
     style="opacity:0.2;fill:#7845ab;fill-opacity:1;stroke:none;stroke-width:0.31999999"
     id="hover-center"
     width="16"
     height="16"
     x="8.0799999"
     y="35.970001" />
  <rect
     y="-27.08"
     x="35.970001"
     height="3"
     width="16"
     id="hover-right"
     style="opacity:0.2;fill:#7845ab;fill-opacity:1;stroke:none;stroke-width:0.13860001"
     transform="rotate(90)" />
  <path
     sodipodi:nodetypes="ccssssc"
     inkscape:connector-curvature="0"
     id="hover-topright"
     d="m 24.08,32.97 c 2.97,0 2.97,0 2.97,2.97 0,0 0,0 0,0 h -2.94 c 0,0 0,0 0,0 v -2.95 c 0,0 0,0 0,0 z"
     style="opacity:0.2;fill:#7845ab;fill-opacity:1;fill-rule:nonzero;stroke:none;stroke-width:0.2304;stroke-linecap:square;stroke-linejoin:round;stroke-miterlimit:4;stroke-dasharray:none;stroke-dashoffset:0;stroke-opacity:1" />
  <rect
     transform="rotate(90)"
     style="fill:#7845ab;fill-opacity:1;stroke:none;stroke-width:0.13860001"
     class="ColorScheme-Highlight"
     id="hover-left"
     width="16"
     height="3"
     x="35.970001"
     y="-8.0799999" />
  <rect
     transform="scale(-1)"
     style="opacity:0.2;fill:#7845ab;fill-opacity:1;stroke:none;stroke-width:0.13860001"
     id="hover-top"
     width="16"
     height="3"
     x="-24.08"
     y="-35.970001" />
  <rect
     y="-54.970001"
     x="-24.08"
     height="3"
     width="16"
     id="hover-bottom"
     style="opacity:0.2;fill:#7845ab;fill-opacity:1;stroke:none;stroke-width:0.13860001"
     transform="scale(-1)" />
  <path
     style="opacity:1;fill:#7845ab;fill-opacity:1;fill-rule:nonzero;stroke:none;stroke-width:0.2304;stroke-linecap:square;stroke-linejoin:round;stroke-miterlimit:4;stroke-dasharray:none;stroke-dashoffset:0;stroke-opacity:1"
     class="ColorScheme-Highlight"
     d="m 8.08,32.97 c -2.97,0 -2.97,0 -2.97,2.97 0,0 0,0 0,0 h 2.94 c 0,0 0,0 0,0 v -2.95 c 0,0 0,0 0,0 z"
     id="hover-topleft"
     inkscape:connector-curvature="0"
     sodipodi:nodetypes="ccssssc" />
  <path
     sodipodi:nodetypes="ccssssc"
     inkscape:connector-curvature="0"
     id="hover-bottomleft"
     d="m 8.08,54.97 c -2.97,0 -2.97,0 -2.97,-2.98 0,0 0,0 0,0 h 2.94 c 0,0 0,0 0,0 v 2.95 c 0,0 0,0 0,0 z"
     class="ColorScheme-Highlight"
     style="opacity:1;fill:#7845ab;fill-opacity:1;fill-rule:nonzero;stroke:none;stroke-width:0.2304;stroke-linecap:square;stroke-linejoin:round;stroke-miterlimit:4;stroke-dasharray:none;stroke-dashoffset:0;stroke-opacity:1" />
  <path
     style="opacity:0.2;fill:#7845ab;fill-opacity:1;fill-rule:nonzero;stroke:none;stroke-width:0.2304;stroke-linecap:square;stroke-linejoin:round;stroke-miterlimit:4;stroke-dasharray:none;stroke-dashoffset:0;stroke-opacity:1"
     d="m 24.08,54.97 c 2.97,0 2.97,0 2.97,-2.98 0,0 0,0 0,0 h -2.94 c 0,0 0,0 0,0 v 2.95 c 0,0 0,0 0,0 z"
     id="hover-bottomright"
     inkscape:connector-curvature="0"
     sodipodi:nodetypes="ccssssc" />
  <rect
     y="8"
     x="8"
     height="16"
     width="16"
     id="normal-center"
     style="opacity:0.2;fill:#7845ab;fill-opacity:1;stroke:none;stroke-width:0.31999999" />
  <rect
     transform="rotate(90)"
     style="opacity:0.2;fill:#7845ab;fill-opacity:1;stroke:none;stroke-width:0.13860001"
     id="normal-right"
     width="16"
     height="3"
     x="8"
     y="-27" />
  <path
     style="opacity:0.2;fill:#7845ab;fill-opacity:1;fill-rule:nonzero;stroke:none;stroke-width:0.2304;stroke-linecap:square;stroke-linejoin:round;stroke-miterlimit:4;stroke-dasharray:none;stroke-dashoffset:0;stroke-opacity:1"
     d="m 24,5 c 2.96,0 2.97,0 2.97,2.97 0,0 0,0 0,0 h -2.94 c 0,0 0,0 0,0 V 5.03 c 0,0 0,0 0,0 z"
     id="normal-topright"
     inkscape:connector-curvature="0"
     sodipodi:nodetypes="ccssssc" />
  <rect
     y="-8"
     x="8"
     height="3"
     width="16"
     id="normal-left"
     class="ColorScheme-Highlight"
     style="fill:#7845ab;fill-opacity:1;stroke:none;stroke-width:0.13860001"
     transform="rotate(90)" />
  <rect
     y="-8"
     x="-24"
     height="3"
     width="16"
     id="normal-top"
     style="opacity:0.2;fill:#7845ab;fill-opacity:1;stroke:none;stroke-width:0.13860001"
     transform="scale(-1)" />
  <rect
     transform="scale(-1)"
     style="opacity:0.2;fill:#7845ab;fill-opacity:1;stroke:none;stroke-width:0.13860001"
     id="normal-bottom"
     width="16"
     height="3"
     x="-24"
     y="-27" />
  <path
     sodipodi:nodetypes="ccssssc"
     inkscape:connector-curvature="0"
     id="normal-topleft"
     d="M 8,5 C 5.03,5 5.02,5 5.02,7.97 c 0,0 0,0 0,0 h 2.95 c 0,0 0,0 0,0 V 5.03 c 0,0 0,0 0,0 z"
     class="ColorScheme-Highlight"
     style="opacity:1;fill:#7845ab;fill-opacity:1;fill-rule:nonzero;stroke:none;stroke-width:0.2304;stroke-linecap:square;stroke-linejoin:round;stroke-miterlimit:4;stroke-dasharray:none;stroke-dashoffset:0;stroke-opacity:1" />
  <path
     style="opacity:1;fill:#7845ab;fill-opacity:1;fill-rule:nonzero;stroke:none;stroke-width:0.2304;stroke-linecap:square;stroke-linejoin:round;stroke-miterlimit:4;stroke-dasharray:none;stroke-dashoffset:0;stroke-opacity:1"
     class="ColorScheme-Highlight"
     d="m 8,27 c -2.97,0 -2.98,0 -2.98,-2.97 0,0 0,0 0,0 h 2.95 c 0,0 0,0 0,0 v 2.94 c 0,0 0,0 0,0 z"
     id="normal-bottomleft"
     inkscape:connector-curvature="0"
     sodipodi:nodetypes="ccssssc" />
  <path
     sodipodi:nodetypes="ccssssc"
     inkscape:connector-curvature="0"
     id="normal-bottomright"
     d="m 24,27 c 2.96,0 2.97,0 2.97,-2.97 0,0 0,0 0,0 h -2.94 c 0,0 0,0 0,0 v 2.94 c 0,0 0,0 0,0 z"
     style="opacity:0.2;fill:#7845ab;fill-opacity:1;fill-rule:nonzero;stroke:none;stroke-width:0.2304;stroke-linecap:square;stroke-linejoin:round;stroke-miterlimit:4;stroke-dasharray:none;stroke-dashoffset:0;stroke-opacity:1" />
  <rect
     y="66.629997"
     x="8"
     height="16"
     width="16"
     id="selected-center"
     style="opacity:0.5;fill:#7845ab;fill-opacity:1;stroke:none;stroke-width:0.31999999" />
  <rect
     transform="rotate(90)"
     style="opacity:0.5;fill:#7845ab;fill-opacity:1;stroke:none;stroke-width:0.13860001"
     id="selected-right"
     width="16"
     height="3"
     x="66.629997"
     y="-27" />
  <path
     style="opacity:0.5;fill:#7845ab;fill-opacity:1;fill-rule:nonzero;stroke:none;stroke-width:0.2304;stroke-linecap:square;stroke-linejoin:round;stroke-miterlimit:4;stroke-dasharray:none;stroke-dashoffset:0;stroke-opacity:1"
     d="m 24,63.63 c 2.96,0 2.97,0 2.97,2.98 0,0 0,0 0,0 h -2.94 c 0,0 0,0 0,0 v -2.95 c 0,0 0,0 0,0 z"
     id="selected-topright"
     inkscape:connector-curvature="0"
     sodipodi:nodetypes="ccssssc" />
  <rect
     y="-8"
     x="66.629997"
     height="3"
     width="16"
     id="selected-left"
     class="ColorScheme-Highlight"
     style="fill:#7845ab;fill-opacity:1;stroke:none;stroke-width:0.13860001"
     transform="rotate(90)" />
  <rect
     y="-66.629997"
     x="-24"
     height="3"
     width="16"
     id="selected-top"
     style="opacity:0.5;fill:#7845ab;fill-opacity:1;stroke:none;stroke-width:0.13860001"
     transform="scale(-1)" />
  <rect
     transform="scale(-1)"
     style="opacity:0.5;fill:#7845ab;fill-opacity:1;stroke:none;stroke-width:0.13860001"
     id="selected-bottom"
     width="16"
     height="3"
     x="-24"
     y="-85.629997" />
  <path
     sodipodi:nodetypes="ccssssc"
     inkscape:connector-curvature="0"
     id="selected-topleft"
     d="m 8,63.63 c -2.97,0 -2.98,0 -2.98,2.98 0,0 0,0 0,0 h 2.95 c 0,0 0,0 0,0 v -2.95 c 0,0 0,0 0,0 z"
     class="ColorScheme-Highlight"
     style="opacity:1;fill:#7845ab;fill-opacity:1;fill-rule:nonzero;stroke:none;stroke-width:0.2304;stroke-linecap:square;stroke-linejoin:round;stroke-miterlimit:4;stroke-dasharray:none;stroke-dashoffset:0;stroke-opacity:1" />
  <path
     style="opacity:1;fill:#7845ab;fill-opacity:1;fill-rule:nonzero;stroke:none;stroke-width:0.2304;stroke-linecap:square;stroke-linejoin:round;stroke-miterlimit:4;stroke-dasharray:none;stroke-dashoffset:0;stroke-opacity:1"
     class="ColorScheme-Highlight"
     d="m 8,85.63 c -2.97,0 -2.98,0 -2.98,-2.97 0,0 0,0 0,0 h 2.95 c 0,0 0,0 0,0 v 2.95 c 0,0 0,0 0,0 z"
     id="selected-bottomleft"
     inkscape:connector-curvature="0"
     sodipodi:nodetypes="ccssssc" />
  <path
     sodipodi:nodetypes="ccssssc"
     inkscape:connector-curvature="0"
     id="selected-bottomright"
     d="m 24,85.63 c 2.96,0 2.97,0 2.97,-2.97 0,0 0,0 0,0 h -2.94 c 0,0 0,0 0,0 v 2.95 c 0,0 0,0 0,0 z"
     style="opacity:0.5;fill:#7845ab;fill-opacity:1;fill-rule:nonzero;stroke:none;stroke-width:0.2304;stroke-linecap:square;stroke-linejoin:round;stroke-miterlimit:4;stroke-dasharray:none;stroke-dashoffset:0;stroke-opacity:1" />
</svg>
