<?xml version="1.0" encoding="UTF-8" standalone="no"?>
<svg
   xmlns:dc="http://purl.org/dc/elements/1.1/"
   xmlns:cc="http://creativecommons.org/ns#"
   xmlns:rdf="http://www.w3.org/1999/02/22-rdf-syntax-ns#"
   xmlns:svg="http://www.w3.org/2000/svg"
   xmlns="http://www.w3.org/2000/svg"
   xmlns:xlink="http://www.w3.org/1999/xlink"
   xmlns:sodipodi="http://sodipodi.sourceforge.net/DTD/sodipodi-0.dtd"
   xmlns:inkscape="http://www.inkscape.org/namespaces/inkscape"
   height="32"
   width="32"
   version="1.1"
   id="svg25"
   sodipodi:docname="folder-games.svg"
   inkscape:version="0.92.4 (5da689c313, 2019-01-14)">
  <metadata
     id="metadata31">
    <rdf:RDF>
      <cc:Work
         rdf:about="">
        <dc:format>image/svg+xml</dc:format>
        <dc:type
           rdf:resource="http://purl.org/dc/dcmitype/StillImage" />
      </cc:Work>
    </rdf:RDF>
  </metadata>
  <defs
     id="defs29">
    <linearGradient
       inkscape:collect="always"
       id="linearGradient850">
      <stop
         style="stop-color:#9966cc;stop-opacity:1"
         offset="0"
         id="stop846" />
      <stop
         style="stop-color:#9966cc;stop-opacity:1"
         offset="1"
         id="stop848" />
    </linearGradient>
    <linearGradient
       inkscape:collect="always"
       id="linearGradient842">
      <stop
         style="stop-color:#9966cc;stop-opacity:1"
         offset="0"
         id="stop838" />
      <stop
         style="stop-color:#2f2043;stop-opacity:1"
         offset="1"
         id="stop840" />
    </linearGradient>
    <linearGradient
       inkscape:collect="always"
       xlink:href="#linearGradient842"
       id="linearGradient844"
       x1="1"
       y1="18.5"
       x2="31"
       y2="18.5"
       gradientUnits="userSpaceOnUse"
       gradientTransform="translate(-1,1.9999996)" />
    <linearGradient
       inkscape:collect="always"
       xlink:href="#linearGradient850"
       id="linearGradient852"
       x1="2"
       y1="7"
       x2="30"
       y2="7"
       gradientUnits="userSpaceOnUse"
       gradientTransform="translate(-1,2)" />
  </defs>
  <sodipodi:namedview
     pagecolor="#ffffff"
     bordercolor="#666666"
     borderopacity="1"
     objecttolerance="10"
     gridtolerance="10"
     guidetolerance="10"
     inkscape:pageopacity="0"
     inkscape:pageshadow="2"
     inkscape:window-width="1920"
     inkscape:window-height="1033"
     id="namedview27"
     showgrid="false"
     inkscape:zoom="20.85965"
     inkscape:cx="-1.5025762"
     inkscape:cy="8.897097"
     inkscape:window-x="0"
     inkscape:window-y="0"
     inkscape:window-maximized="1"
     inkscape:current-layer="svg25" />
  <linearGradient
     id="a"
     gradientUnits="userSpaceOnUse"
     x2="0"
     y1="29"
     y2="8">
    <stop
       offset="0"
       stop-color="#3daee9"
       id="stop2" />
    <stop
       offset="1"
       stop-color="#6cc1ef"
       id="stop4" />
  </linearGradient>
  <path
     d="m 1,5 v 8 H 29 V 7 H 15 L 13,5 Z"
     id="path7"
     style="fill:url(#linearGradient852);fill-opacity:1;fill-rule:evenodd"
     inkscape:connector-curvature="0" />
  <path
     d="M 12,9.9999996 10,11 H 1 v 1 h 10 z"
     id="path9"
     style="fill:#2f2043;fill-opacity:1;fill-rule:evenodd;opacity:0.99999999"
     inkscape:connector-curvature="0" />
  <path
     d="M 12,9.9999996 10,12 H 0 V 31 H 30 V 9.9999996 Z"
     id="path11"
     style="fill:url(#linearGradient844);fill-opacity:1"
     inkscape:connector-curvature="0" />
  <g
     id="g17"
     style="fill-opacity:0.23500001"
     transform="translate(-1,2)">
    <path
       d="m 13,8 -2,2 H 1 v 1 h 11 z m 1,-5 1,3 H 30 V 5 H 16 Z"
       id="path13"
       inkscape:connector-curvature="0"
       style="fill:#ffffff;fill-rule:evenodd" />
    <path
       d="m 1,28 h 30 v 1 H 1 Z"
       id="path15"
       inkscape:connector-curvature="0"
       style="fill:#2f2043;fill-opacity:1;opacity:0.75" />
  </g>
  <g
     id="g23"
     fill="#1272a5">
    <path
       d="m13 17v1h-1v1h1v1h1v-1h1v-1h-1v-1zm5.5-.1a.6.6 0 0 0 -.6.6.6.6 0 0 0 .6.6.6.6 0 0 0 .6-.6.6.6 0 0 0 -.6-.6zm-1 1a.6.6 0 0 0 -.6.6.6.6 0 0 0 .6.6.6.6 0 0 0 .6-.6.6.6 0 0 0 -.6-.6zm2 0a.6.6 0 0 0 -.6.6.6.6 0 0 0 .6.6.6.6 0 0 0 .6-.6.6.6 0 0 0 -.6-.6zm-1 1a.6.6 0 0 0 -.6.6.6.6 0 0 0 .6.6.6.6 0 0 0 .6-.6.6.6 0 0 0 -.6-.6z"
       id="path19"
       style="fill:#2f2043;fill-opacity:1" />
    <path
       d="m12 15a2 4 0 0 0 -2 4v2.5a1.5 1.5 0 0 0 2.56 1.06l.944-.943a1.5 1.5 0 0 0 .996.383 1.5 1.5 0 0 0 1.5-1.5 1.5 1.5 0 0 0 2.498 1.12l.941.94a1.5 1.5 0 0 0 2.561-1.06v-2.5a2 4 0 0 0 -2-4zm0 1h8a1 3 0 0 1 1 3v2.5a.5.5 0 0 1 -.854.354l-1.853-1.854h-.293v.5a.5.5 0 0 1 -1 0v-.5h-2v.5a.5.5 0 0 1 -1 0v-.5h-.293l-1.853 1.854a.5.5 0 0 1 -.854-.354v-2.5a1 3 0 0 1 1-3z"
       id="path21"
       style="fill:#2f2043;fill-opacity:1" />
  </g>
</svg>
