<?xml version="1.0" encoding="UTF-8" standalone="no"?>
<!-- Created with Inkscape (http://www.inkscape.org/) -->

<svg
   xmlns:dc="http://purl.org/dc/elements/1.1/"
   xmlns:cc="http://creativecommons.org/ns#"
   xmlns:rdf="http://www.w3.org/1999/02/22-rdf-syntax-ns#"
   xmlns:svg="http://www.w3.org/2000/svg"
   xmlns="http://www.w3.org/2000/svg"
   xmlns:sodipodi="http://sodipodi.sourceforge.net/DTD/sodipodi-0.dtd"
   xmlns:inkscape="http://www.inkscape.org/namespaces/inkscape"
   width="121"
   height="56"
   viewBox="0 0 121 56"
   id="svg2"
   version="1.1"
   inkscape:version="0.92.4 (5da689c313, 2019-01-14)"
   sodipodi:docname="translucentbackground.svg">
  <defs
     id="defs4">
    <style
       type="text/css"
       id="current-color-scheme">
      .ColorScheme-Text {
        color:#31363b;
      }
      .ColorScheme-Background {
        color:#eff0f1;
      }
      .ColorScheme-Highlight {
        color:#3daee9;
      }
      .ColorScheme-ViewText {
        color:#31363b;
      }
      .ColorScheme-ViewBackground {
        color:#fcfcfc;
      }
      .ColorScheme-ViewHover {
        color:#93cee9;
      }
      .ColorScheme-ViewFocus{
        color:#3daee9;
      }
      .ColorScheme-ButtonText {
        color:#31363b;
      }
      .ColorScheme-ButtonBackground {
        color:#eff0f1;
      }
      .ColorScheme-ButtonHover {
        color:#93cee9;
      }
      .ColorScheme-ButtonFocus{
        color:#3daee9;
      }
      </style>
    <style
       type="text/css"
       id="style25">
      .ColorScheme-Text {
        color:#31363b;
      }
      .ColorScheme-Background {
        color:#eff0f1;
      }
      .ColorScheme-Highlight {
        color:#3daee9;
      }
      .ColorScheme-ViewText {
        color:#31363b;
      }
      .ColorScheme-ViewBackground {
        color:#fcfcfc;
      }
      .ColorScheme-ViewHover {
        color:#93cee9;
      }
      .ColorScheme-ViewFocus{
        color:#3daee9;
      }
      .ColorScheme-ButtonText {
        color:#31363b;
      }
      .ColorScheme-ButtonBackground {
        color:#eff0f1;
      }
      .ColorScheme-ButtonHover {
        color:#93cee9;
      }
      .ColorScheme-ButtonFocus{
        color:#3daee9;
      }
      </style>
  </defs>
  <sodipodi:namedview
     id="base"
     pagecolor="#ffffff"
     bordercolor="#000000"
     borderopacity="1"
     inkscape:pageopacity="0"
     inkscape:pageshadow="2"
     inkscape:zoom="3.0255287"
     inkscape:cx="81.444324"
     inkscape:cy="10.257768"
     inkscape:document-units="px"
     inkscape:current-layer="layer1"
     showgrid="false"
     inkscape:showpageshadow="false"
     borderlayer="true"
     units="px"
     inkscape:window-width="1280"
     inkscape:window-height="977"
     inkscape:window-x="0"
     inkscape:window-y="0"
     inkscape:window-maximized="1"
     showguides="true"
     fit-margin-top="0"
     fit-margin-left="0"
     fit-margin-right="0"
     fit-margin-bottom="0">
    <inkscape:grid
       type="xygrid"
       id="grid3336"
       empspacing="2"
       originx="0"
       originy="-91.999954" />
  </sodipodi:namedview>
  <metadata
     id="metadata7">
    <rdf:RDF>
      <cc:Work
         rdf:about="">
        <dc:format>image/svg+xml</dc:format>
        <dc:type
           rdf:resource="http://purl.org/dc/dcmitype/StillImage" />
        <dc:title />
      </cc:Work>
    </rdf:RDF>
  </metadata>
  <g
     inkscape:label="Layer 1"
     inkscape:groupmode="layer"
     id="layer1"
     transform="translate(0,-904.36221)">
    <rect
       style="opacity:1;fill:#7845ab;fill-opacity:1;stroke:none"
       id="hint-tile-center"
       width="5"
       height="5"
       x="0"
       y="904.36218" />
    <g
       id="top"
       style="fill:#000000;fill-opacity:0.02645503">
      <rect
         y="-50.999985"
         x="-916.36218"
         height="32"
         width="6"
         id="rect4152"
         style="opacity:0.9;fill:#000000;fill-opacity:0.02645503;stroke:none"
         transform="matrix(0,-1,-1,0,0,0)"
         class="ColorScheme-Background" />
    </g>
    <g
       id="topleft"
       style="fill:#000000;fill-opacity:0">
      <path
         style="opacity:0.9;fill:#000000;fill-opacity:0"
         d="m 14,6 c -0.553986,0 -1,0.4460137 -1,1 l 0,4 0,1 4,0 1,0 1,0 0,-1 0,-4 0,-1 -1,0 -1,0 -3,0 z"
         transform="translate(0,904.36218)"
         id="rect4159"
         inkscape:connector-curvature="0"
         class="ColorScheme-Background" />
    </g>
    <g
       id="topright"
       style="fill:#000000;fill-opacity:0">
      <path
         style="opacity:0.9;fill:#000000;fill-opacity:0"
         d="m 51,6 0,1 0,4 0,1 1,0 1,0 3,0 1,0 0,-1 0,-4 C 57,6.4460137 56.553986,6 56,6 l -3,0 -1,0 -1,0 z"
         transform="translate(0,904.36218)"
         id="rect4177"
         inkscape:connector-curvature="0"
         class="ColorScheme-Background" />
    </g>
    <g
       id="bottom"
       style="fill:#000000;fill-opacity:0">
      <rect
         transform="matrix(0,1,-1,0,0,0)"
         style="opacity:0.9;fill:#000000;fill-opacity:0;stroke:none"
         id="rect4148"
         width="6"
         height="32"
         x="948.36218"
         y="-50.999985"
         class="ColorScheme-Background" />
    </g>
    <g
       id="bottomleft"
       style="fill:#000000;fill-opacity:0">
      <path
         inkscape:connector-curvature="0"
         style="opacity:0.9;fill:#000000;fill-opacity:0"
         d="m 19,954.36218 0,-1 0,-4 0,-1 -1,0 -1,0 -3,0 -1,0 0,1 0,4 c 0,0.55399 0.446014,1 1,1 l 3,0 1,0 1,0 z"
         id="path5048"
         class="ColorScheme-Background" />
    </g>
    <g
       id="bottomright"
       style="fill:#000000;fill-opacity:0">
      <path
         id="rect4177-6"
         d="m 51,954.36218 0,-1 0,-4 0,-1 1,0 1,0 3,0 1,0 0,1 0,4 c 0,0.55399 -0.446014,1 -1,1 l -3,0 -1,0 -1,0 z"
         style="opacity:0.9;fill:#000000;fill-opacity:0"
         inkscape:connector-curvature="0"
         class="ColorScheme-Background" />
    </g>
    <g
       id="left"
       style="fill:#000000;fill-opacity:0">
      <rect
         transform="scale(-1,1)"
         style="opacity:0.9;fill:#000000;fill-opacity:0;stroke:none"
         id="rect4144"
         width="5.9999995"
         height="32"
         x="-19.000004"
         y="916.36218"
         class="ColorScheme-Background" />
    </g>
    <g
       id="right"
       style="fill:#000000;fill-opacity:0">
      <rect
         y="916.36218"
         x="50.999985"
         height="32"
         width="5.9999995"
         id="rect4140"
         style="opacity:0.9;fill:#000000;fill-opacity:0;stroke:none"
         class="ColorScheme-Background" />
    </g>
    <g
       id="center"
       style="fill:#000000;fill-opacity:0">
      <rect
         y="916.36218"
         x="19.000004"
         height="32"
         width="32"
         id="rect4401"
         style="opacity:1;fill:#000000;fill-opacity:0;stroke:none" />
      <rect
         style="opacity:0.9;fill:#000000;fill-opacity:0;stroke:none"
         id="rect4138"
         width="32"
         height="32"
         x="19.000004"
         y="916.36218"
         class="ColorScheme-Background" />
    </g>
    <rect
       style="fill:#7845ab;fill-opacity:1;stroke:none"
       id="hint-top-margin"
       width="4"
       height="6.0000248"
       x="33"
       y="916.36218" />
    <rect
       y="942.36218"
       x="33"
       height="5.9999752"
       width="4"
       id="hint-bottom-margin"
       style="fill:#7845ab;fill-opacity:1;stroke:none" />
    <rect
       y="-51"
       x="930.36218"
       height="6.0000153"
       width="4"
       id="hint-right-margin"
       style="fill:#7845ab;fill-opacity:1;stroke:none"
       transform="matrix(0,1,-1,0,0,0)" />
    <rect
       style="fill:#7845ab;fill-opacity:1;stroke:none"
       id="hint-left-margin"
       width="4"
       height="6.0000038"
       x="930.36218"
       y="-25.000004"
       transform="matrix(0,1,-1,0,0,0)" />
    <g
       id="shadow-top"
       transform="translate(58,0)"
       style="fill:#000000;fill-opacity:0">
      <rect
         transform="matrix(0,-1,-1,0,0,0)"
         style="opacity:1;fill:#000000;fill-opacity:0;stroke:none"
         id="rect4820"
         width="6"
         height="32"
         x="-916.36218"
         y="-50.999985" />
      <rect
         transform="matrix(0,-1,-1,0,0,0)"
         style="opacity:1;fill:#000000;fill-opacity:0;stroke:none"
         id="rect4822"
         width="6"
         height="32"
         x="-910.36218"
         y="-50.999985" />
      <rect
         y="-50.999985"
         x="-911.36218"
         height="32"
         width="0.99997741"
         id="rect4824"
         style="opacity:1;fill:#000000;fill-opacity:0;stroke:none"
         transform="matrix(0,-1,-1,0,0,0)" />
    </g>
    <g
       id="shadow-topleft"
       transform="translate(58,0)"
       style="fill:#000000;fill-opacity:0">
      <path
         id="path4828"
         transform="translate(0,904.36218)"
         d="m 7,7 0,1 0,4 6,0 0,-4 0,-1 -6,0 z"
         style="fill:#000000;fill-opacity:0;fill-rule:evenodd;stroke:none;stroke-width:1px;stroke-linecap:butt;stroke-linejoin:miter;stroke-opacity:1"
         inkscape:connector-curvature="0" />
      <path
         style="opacity:0.6;fill:#000000;fill-opacity:0;fill-rule:evenodd;stroke:none;stroke-width:1px;stroke-linecap:butt;stroke-linejoin:miter;stroke-opacity:1"
         d="m 65,0 0,7 6,0 0,-1 1,0 0,-6 -7,0 z"
         transform="translate(-58,904.36218)"
         id="path4830"
         inkscape:connector-curvature="0" />
      <path
         style="fill:#000000;fill-opacity:0;fill-rule:evenodd;stroke:none;stroke-width:1px;stroke-linecap:butt;stroke-linejoin:miter;stroke-opacity:1"
         d="m 72,0 0,6 1,0 4,0 0,-6 -4,0 -1,0 z"
         transform="translate(-58,904.36218)"
         id="path4832"
         inkscape:connector-curvature="0" />
      <rect
         ry="0.9999752"
         y="910.36218"
         x="-19.000004"
         height="6.0000224"
         width="5.9999919"
         id="rect4834"
         style="fill:#000000;fill-opacity:0"
         transform="scale(-1,1)" />
      <rect
         ry="0"
         y="910.36218"
         x="-19.000004"
         height="5.9999752"
         width="2.0000038"
         id="rect4836"
         style="fill:#000000;fill-opacity:0"
         transform="scale(-1,1)" />
      <rect
         y="914.36218"
         x="-18"
         height="2.0000248"
         width="4.9999924"
         id="rect4838"
         style="fill:#000000;fill-opacity:0"
         transform="scale(-1,1)" />
    </g>
    <g
       id="shadow-topright"
       transform="translate(58,0)"
       style="fill:#000000;fill-opacity:0">
      <path
         id="path4842"
         transform="translate(0,904.36218)"
         d="m 57,7 0,1 0,4 6,0 0,-4 0,-1 -6,0 z"
         style="fill:#000000;fill-opacity:0;fill-rule:evenodd;stroke:none;stroke-width:1px;stroke-linecap:butt;stroke-linejoin:miter;stroke-opacity:1"
         inkscape:connector-curvature="0" />
      <path
         style="fill:#000000;fill-opacity:0;fill-rule:evenodd;stroke:none;stroke-width:1px;stroke-linecap:butt;stroke-linejoin:miter;stroke-opacity:1"
         d="m 114,0 0,6 1,0 0,1 6,0 0,-7 -7,0 z"
         transform="translate(-58,904.36218)"
         id="path4844"
         inkscape:connector-curvature="0" />
      <path
         style="fill:#000000;fill-opacity:0;fill-rule:evenodd;stroke:none;stroke-width:1px;stroke-linecap:butt;stroke-linejoin:miter;stroke-opacity:1"
         d="m 109,0 0,6 4,0 1,0 0,-6 -1,0 -4,0 z"
         transform="translate(-58,904.36218)"
         id="path4846"
         inkscape:connector-curvature="0" />
      <rect
         style="fill:#000000;fill-opacity:0"
         id="rect4848"
         width="5.9999957"
         height="6.0000224"
         x="50.999985"
         y="910.36218"
         ry="0.9999752" />
      <rect
         style="fill:#000000;fill-opacity:0"
         id="rect4850"
         width="2.0000153"
         height="5.9999752"
         x="50.999985"
         y="910.36218"
         ry="0" />
      <rect
         style="fill:#000000;fill-opacity:0"
         id="rect4852"
         width="4.9999809"
         height="2.0000248"
         x="52"
         y="914.36218" />
    </g>
    <g
       id="shadow-bottom"
       transform="translate(58,0)"
       style="fill:#000000;fill-opacity:0">
      <rect
         y="-50.999985"
         x="948.36218"
         height="32"
         width="6"
         id="rect4856"
         style="opacity:1;fill:#000000;fill-opacity:0;stroke:none"
         transform="matrix(0,1,-1,0,0,0)" />
      <rect
         y="-50.999985"
         x="954.36218"
         height="32"
         width="6"
         id="rect4858"
         style="opacity:1;fill:#000000;fill-opacity:0;stroke:none"
         transform="matrix(0,1,-1,0,0,0)" />
      <rect
         transform="matrix(0,1,-1,0,0,0)"
         style="opacity:1;fill:#000000;fill-opacity:0;stroke:none"
         id="rect4860"
         width="1.0000226"
         height="31.999971"
         x="953.36218"
         y="-50.999985" />
    </g>
    <g
       id="shadow-bottomleft"
       transform="translate(58,0)"
       style="fill:#000000;fill-opacity:0">
      <path
         style="fill:#000000;fill-opacity:0;fill-rule:evenodd;stroke:none;stroke-width:1px;stroke-linecap:butt;stroke-linejoin:miter;stroke-opacity:1"
         d="m 72,50 0,6 1,0 4,0 0,-6 -4,0 -1,0 z"
         transform="translate(-58,904.36218)"
         id="path4864"
         inkscape:connector-curvature="0" />
      <path
         style="opacity:0.6;fill:#000000;fill-opacity:0;fill-rule:evenodd;stroke:none;stroke-width:1px;stroke-linecap:butt;stroke-linejoin:miter;stroke-opacity:1"
         d="m 65,49 0,7 7,0 0,-6 -1,0 0,-1 -6,0 z"
         transform="translate(-58,904.36218)"
         id="path4866"
         inkscape:connector-curvature="0" />
      <path
         id="path4868"
         transform="translate(0,904.36218)"
         d="m 7,44 0,4 0,1 6,0 0,-1 0,-4 -6,0 z"
         style="fill:#000000;fill-opacity:0;fill-rule:evenodd;stroke:none;stroke-width:1px;stroke-linecap:butt;stroke-linejoin:miter;stroke-opacity:1"
         inkscape:connector-curvature="0" />
      <rect
         style="fill:#000000;fill-opacity:0"
         id="rect4870"
         width="5.9999957"
         height="5.999999"
         x="-19.000004"
         y="-954.36188"
         ry="0.99971962"
         transform="scale(-1,-1)" />
      <rect
         transform="scale(-1,-1)"
         style="fill:#000000;fill-opacity:0"
         id="rect4872"
         width="2.0000038"
         height="6.0000248"
         x="-19.000004"
         y="-954.36218"
         ry="0" />
      <rect
         transform="scale(-1,-1)"
         style="fill:#000000;fill-opacity:0"
         id="rect4874"
         width="4.9999714"
         height="2.0000362"
         x="-18"
         y="-950.36218" />
    </g>
    <g
       id="shadow-bottomright"
       transform="translate(58,0)"
       style="fill:#000000;fill-opacity:0">
      <path
         style="fill:#000000;fill-opacity:0;fill-rule:evenodd;stroke:none;stroke-width:1px;stroke-linecap:butt;stroke-linejoin:miter;stroke-opacity:1"
         d="m 109,50 0,6 4,0 1,0 0,-6 -1,0 -4,0 z"
         transform="translate(-58,904.36218)"
         id="path4878"
         inkscape:connector-curvature="0" />
      <path
         style="opacity:0.6;fill:#000000;fill-opacity:0;fill-rule:evenodd;stroke:none;stroke-width:1px;stroke-linecap:butt;stroke-linejoin:miter;stroke-opacity:1"
         d="m 115,49 0,1 -1,0 0,6 7,0 0,-7 -6,0 z"
         transform="translate(-58,904.36218)"
         id="path4880"
         inkscape:connector-curvature="0" />
      <path
         id="path4882"
         transform="translate(0,904.36218)"
         d="m 57,44 0,4 0,1 6,0 0,-1 0,-4 -6,0 z"
         style="fill:#000000;fill-opacity:0;fill-rule:evenodd;stroke:none;stroke-width:1px;stroke-linecap:butt;stroke-linejoin:miter;stroke-opacity:1"
         inkscape:connector-curvature="0" />
      <rect
         ry="0.99971962"
         y="-954.36188"
         x="50.999985"
         height="5.999999"
         width="5.9999957"
         id="rect4884"
         style="fill:#000000;fill-opacity:0"
         transform="scale(1,-1)" />
      <rect
         ry="0"
         y="-954.36218"
         x="50.999985"
         height="6.0000248"
         width="2.0000153"
         id="rect4886"
         style="fill:#000000;fill-opacity:0"
         transform="scale(1,-1)" />
      <rect
         y="-950.36218"
         x="52"
         height="2.0000362"
         width="4.9999847"
         id="rect4888"
         style="fill:#000000;fill-opacity:0"
         transform="scale(1,-1)" />
    </g>
    <g
       id="shadow-left"
       transform="translate(58,0)"
       style="fill:#000000;fill-opacity:0">
      <rect
         y="916.36218"
         x="-19.000004"
         height="32"
         width="5.9999995"
         id="rect4892"
         style="opacity:1;fill:#000000;fill-opacity:0;stroke:none"
         transform="scale(-1,1)" />
      <rect
         y="916.36218"
         x="-13.000002"
         height="32"
         width="5.9999995"
         id="rect4894"
         style="opacity:1;fill:#000000;fill-opacity:0;stroke:none"
         transform="scale(-1,1)" />
      <rect
         transform="scale(-1,1)"
         style="opacity:1;fill:#000000;fill-opacity:0;stroke:none"
         id="rect4896"
         width="1.0000019"
         height="32.000023"
         x="-14.000002"
         y="916.36218" />
    </g>
    <g
       id="shadow-right"
       transform="translate(58,0)"
       style="fill:#000000;fill-opacity:0">
      <rect
         style="opacity:1;fill:#000000;fill-opacity:0;stroke:none"
         id="rect4900"
         width="5.9999995"
         height="32"
         x="50.999985"
         y="916.36218" />
      <rect
         style="opacity:1;fill:#000000;fill-opacity:0;stroke:none"
         id="rect4902"
         width="5.9999995"
         height="32"
         x="56.999985"
         y="916.36218" />
      <rect
         y="916.36218"
         x="55.999985"
         height="32.000023"
         width="1"
         id="rect4904"
         style="opacity:1;fill:#000000;fill-opacity:0;stroke:none" />
    </g>
    <g
       id="shadow-center"
       transform="translate(58,0)">
      <rect
         style="opacity:1;fill:none;fill-opacity:1;stroke:none"
         id="rect4908"
         width="32"
         height="32"
         x="19.000004"
         y="916.36218" />
      <rect
         y="916.36218"
         x="19.000004"
         height="32"
         width="32"
         id="rect4910"
         style="opacity:1;fill:none;fill-opacity:1;stroke:none" />
    </g>
    <rect
       y="904.36218"
       x="91"
       height="5.9999771"
       width="4"
       id="shadow-hint-top-margin"
       style="fill:#7845ab;fill-opacity:1;stroke:none" />
    <rect
       style="fill:#7845ab;fill-opacity:1;stroke:none"
       id="shadow-hint-bottom-margin"
       width="4"
       height="6.0000229"
       x="91"
       y="954.36218" />
    <rect
       transform="matrix(0,1,-1,0,0,0)"
       style="fill:#7845ab;fill-opacity:1;stroke:none"
       id="shadow-hint-right-margin"
       width="3.9999769"
       height="5.9999771"
       x="930.36218"
       y="-120.99998" />
    <rect
       transform="matrix(0,1,-1,0,0,0)"
       y="-71"
       x="930.36218"
       height="6"
       width="4.0000229"
       id="shadow-hint-left-margin"
       style="fill:#7845ab;fill-opacity:1;stroke:none" />
  </g>
</svg>
