<?xml version="1.0" encoding="UTF-8" standalone="no"?>
<svg
   xmlns:dc="http://purl.org/dc/elements/1.1/"
   xmlns:cc="http://creativecommons.org/ns#"
   xmlns:rdf="http://www.w3.org/1999/02/22-rdf-syntax-ns#"
   xmlns:svg="http://www.w3.org/2000/svg"
   xmlns="http://www.w3.org/2000/svg"
   xmlns:xlink="http://www.w3.org/1999/xlink"
   xmlns:sodipodi="http://sodipodi.sourceforge.net/DTD/sodipodi-0.dtd"
   xmlns:inkscape="http://www.inkscape.org/namespaces/inkscape"
   width="54"
   height="32"
   id="svg3613"
   version="1.1"
   sodipodi:docname="applications.svg"
   inkscape:version="0.92.4 (5da689c313, 2019-01-14)">
  <sodipodi:namedview
     pagecolor="#ffffff"
     bordercolor="#666666"
     borderopacity="1"
     objecttolerance="10"
     gridtolerance="10"
     guidetolerance="10"
     inkscape:pageopacity="0"
     inkscape:pageshadow="2"
     inkscape:window-width="1280"
     inkscape:window-height="977"
     id="namedview12"
     showgrid="false"
     inkscape:zoom="7.564062"
     inkscape:cx="33.116011"
     inkscape:cy="16.251761"
     inkscape:window-x="0"
     inkscape:window-y="0"
     inkscape:window-maximized="1"
     inkscape:current-layer="svg3613" />
  <metadata
     id="metadata13">
    <rdf:RDF>
      <cc:Work
         rdf:about="">
        <dc:format>image/svg+xml</dc:format>
        <dc:type
           rdf:resource="http://purl.org/dc/dcmitype/StillImage" />
        <dc:title />
      </cc:Work>
    </rdf:RDF>
  </metadata>
  <defs
     id="defs3615">
    <linearGradient
       inkscape:collect="always"
       id="linearGradient822">
      <stop
         style="stop-color:#462369;stop-opacity:1"
         offset="0"
         id="stop818" />
      <stop
         style="stop-color:#7e3fbe;stop-opacity:0.624"
         offset="1"
         id="stop820" />
    </linearGradient>
    <style
       type="text/css"
       id="current-color-scheme">
      .ColorScheme-Text {
        color:#31363b;
      }
      .ColorScheme-Background{
        color:#E9E8E8;
      }
      .ColorScheme-ViewText {
        color:#31363b;
      }
      .ColorScheme-ViewBackground{
        color:#ffffff;
      }
      .ColorScheme-ViewHover {
        color:#000000;
      }
      .ColorScheme-ViewFocus{
        color:#5a5a5a;
      }
      .ColorScheme-ButtonText {
        color:#31363b;
      }
      .ColorScheme-ButtonBackground{
        color:#E9E8E8;
      }
      .ColorScheme-ButtonHover {
        color:#1489ff;
      }
      .ColorScheme-ButtonFocus{
        color:#2B74C7;
      }
</style>
    <linearGradient
       inkscape:collect="always"
       xlink:href="#linearGradient822"
       id="linearGradient828"
       x1="431.71494"
       y1="537.72235"
       x2="431.91428"
       y2="528.27203"
       gradientUnits="userSpaceOnUse" />
    <radialGradient
       inkscape:collect="always"
       xlink:href="#linearGradient822"
       id="radialGradient836"
       cx="436.71429"
       cy="532.79071"
       fx="436.71429"
       fy="532.79071"
       r="11.99996"
       gradientTransform="matrix(1,0,0,1.0000017,0,-8.8798751e-4)"
       gradientUnits="userSpaceOnUse" />
  </defs>
  <g
     transform="matrix(1.0000029,0,0,1.000001,-420.71555,-516.79125)"
     id="22-22-applications-other">
    <rect
       style="opacity:0.01000001;fill:#000000;fill-opacity:0.00392157;stroke:none"
       id="rect3028"
       width="22"
       height="22"
       x="-7.1556997e-08"
       y="2.0000052"
       transform="matrix(0.99999706,0,0,0.99999899,420.71433,524.79072)" />
    <path
       style="fill:url(#linearGradient828);fill-opacity:1.0;stroke:none"
       d="m 423.71432,529.79072 0,6.99999 6.99998,0 0,-6.99999 -6.99998,0 z m 8.99998,0 0,6.99999 6.99998,0 0,-6.99999 -6.99998,0 z m -7.99998,1 4.99999,0 0,4.99999 -4.99999,0 0,-4.99999 z m 8.99997,0 4.99999,0 0,4.99999 -4.99999,0 0,-4.99999 z m -9.99997,7.99999 0,6.99999 6.99998,0 0,-6.99999 -6.99998,0 z m 8.99998,0 0,6.99999 0.99999,0 4.99999,0 1,0 0,-1 0,-4.99999 0,-1 -1,0 -4.99999,0 -0.99999,0 z m -7.99998,1 4.99999,0 0,4.99999 -4.99999,0 0,-4.99999 z m 8.99997,0 4.99999,0 0,4.99999 -4.99999,0 0,-4.99999 z"
       id="rect4298"
       class="ColorScheme-Text" />
  </g>
  <g
     transform="matrix(1.0000028,0,0,1.0000009,-398.71551,-516.79118)"
     id="applications-other">
    <rect
       style="opacity:0.01000001;fill:#000000;fill-opacity:0.00392157;stroke:none"
       id="rect2994"
       width="32"
       height="32"
       x="-7.1557004e-08"
       y="-7.9999948"
       transform="matrix(0.99999706,0,0,0.99999899,420.71433,524.79072)" />
    <path
       style="fill:url(#radialGradient836);fill-opacity:1.0;stroke:none"
       d="m 424.71433,520.79075 0,9.99995 9.99995,10e-6 0,-9.99994 z m 13.99994,2e-5 0,9.99994 9.99998,-10e-6 0,-9.99995 z m -12.99995,0.99994 7.99998,0 0,7.99999 -7.99998,0 z m 13.99996,0 7.99998,0 0,7.99999 -7.99998,0 z m -14.99995,13 0,9.99998 9.99995,2e-5 0,-9.99998 z m 13.99994,2e-5 0,9.99998 1.99999,-2e-5 5.99999,0 2,0 0,-1.99998 0,-5.99999 0,-2.00001 -2,0 -5.99999,0 z m -12.99995,0.99997 7.99998,0 0,7.99999 -7.99998,0 z m 13.99996,0 7.99998,0 0,7.99999 -7.99998,0 z"
       id="path2996"
       class="ColorScheme-Text" />
  </g>
</svg>
